<svg t="1631416966171" class="icon" viewBox="0 0 1035 1024" version="1.1" xmlns="http://www.w3.org/2000/svg" p-id="958" width="200" height="200"><path d="M512.191446 0.063288C229.863634 0.063288 0.191446 229.735476 0.191446 512s229.672188 511.936712 511.936712 511.936712C794.45597 1023.936712 1024.128158 794.264524 1024.128158 512S794.45597 0.063288 512.191446 0.063288zM581.112089 890.842027V638.57602H454.536069v254.038071A385.677132 385.677132 0 0 1 132.463387 575.28801H391.248059V448.71199H132.463387A385.677132 385.677132 0 0 1 454.536069 131.385909V385.42398h126.57602V133.157973A385.866996 385.866996 0 0 1 891.919506 448.71199H644.400099v126.57602h247.519407A385.866996 385.866996 0 0 1 581.112089 890.842027z" fill="#333" p-id="959"></path></svg>
