<svg t="1631416950281" class="icon" viewBox="0 0 1024 1024" version="1.1" xmlns="http://www.w3.org/2000/svg" p-id="814" width="200" height="200"><path d="M448 192h64v64h64v64h64v63.616l66.816-66.88a63.936 63.936 0 0 0 0-90.496L525.824 45.248a63.936 63.936 0 0 0-90.496 0L384 96.576V128h64v64zM256 512H192V448H128V384h-31.424l-51.328 51.328a63.936 63.936 0 0 0 0 90.496l180.992 180.992a63.936 63.936 0 0 0 90.496 0L383.616 640H320V576H256V512zM896 832v-64h-64v-64h-64v-64h-64V576h-64V512H576V448h-0.384l64-64H576V320H512V256H448V192H384V128h-31.424L128 352.576V384h64v64h64v64h64v64h64v63.616l64-64V576h64v64h64v64h64v64h64v64h64v64h64v64h128v-128z" fill="#333" p-id="815"></path></svg>
