<svg xmlns="http://www.w3.org/2000/svg" xmlns:xlink="http://www.w3.org/1999/xlink" viewBox="0 0 48 48">
    <defs>
        <style>
            .cls-1 {
                fill: url(#linear-gradient);
            }

            .cls-2 {
                fill: url(#linear-gradient-2);
            }

            .cls-3 {
                fill: url(#linear-gradient-3);
            }

            .cls-4 {
                fill: url(#linear-gradient-4);
            }

            .cls-5 {
                fill: url(#linear-gradient-5);
            }

            .cls-6 {
                fill: url(#linear-gradient-6);
            }

            .cls-7 {
                fill: url(#linear-gradient-7);
            }

            .cls-8 {
                fill: url(#linear-gradient-8);
            }

            .cls-9 {
                fill: url(#linear-gradient-9);
            }

            .cls-10 {
                fill: url(#linear-gradient-10);
            }

            .cls-11 {
                fill: url(#linear-gradient-11);
            }

            .cls-12 {
                fill: url(#linear-gradient-12);
            }

            .cls-13 {
                fill: url(#linear-gradient-13);
            }

            .cls-14 {
                fill: url(#linear-gradient-14);
            }

            .cls-15 {
                fill: url(#linear-gradient-15);
            }

            .cls-16 {
                fill: url(#linear-gradient-16);
            }

            .cls-17 {
                fill: url(#linear-gradient-17);
            }

            .cls-18 {
                fill: url(#linear-gradient-18);
            }

            .cls-19 {
                fill: url(#linear-gradient-19);
            }

            .cls-20 {
                fill: url(#linear-gradient-20);
            }

            .cls-21 {
                fill: url(#linear-gradient-21);
            }

            .cls-22 {
                fill: url(#linear-gradient-22);
            }

            .cls-23 {
                fill: url(#linear-gradient-23);
            }

            .cls-24 {
                fill: url(#linear-gradient-24);
            }

            .cls-25 {
                fill: url(#linear-gradient-25);
            }

            .cls-26 {
                fill: url(#linear-gradient-26);
            }

            .cls-27 {
                fill: url(#linear-gradient-27);
            }
        </style>
        <linearGradient id="linear-gradient" x1="361.47" y1="3.99" x2="428.47" y2="29.87"
            gradientTransform="matrix(-1, 0, 0, 1, 428, 0)" gradientUnits="userSpaceOnUse">
            <stop offset="0" stop-color="#f3c57a" />
            <stop offset="0.49" stop-color="#f39369" />
            <stop offset="1" stop-color="#e94867" />
        </linearGradient>
        <linearGradient id="linear-gradient-2" x1="401.27" y1="15.54" x2="389.52" y2="9.62"
            gradientTransform="matrix(1, 0, 0, -1, -358.7, 23.09)" xlink:href="#linear-gradient" />
        <linearGradient id="linear-gradient-3" x1="382.98" y1="8.08" x2="407.78" y2="28.08"
            xlink:href="#linear-gradient" />
        <linearGradient id="linear-gradient-4" x1="-18.53" y1="3.99" x2="48.47" y2="29.87"
            gradientTransform="matrix(1, 0, 0, 1, 0, 0)" xlink:href="#linear-gradient" />
        <linearGradient id="linear-gradient-5" x1="21.27" y1="15.54" x2="9.52" y2="9.62"
            gradientTransform="matrix(1, 0, 0, 1, 0, 0)" xlink:href="#linear-gradient" />
        <linearGradient id="linear-gradient-6" x1="2.98" y1="8.08" x2="27.78" y2="28.08"
            gradientTransform="matrix(1, 0, 0, 1, 0, 0)" xlink:href="#linear-gradient" />
        <linearGradient id="linear-gradient-7" x1="24" y1="37.25" x2="24" y2="53.53"
            gradientTransform="matrix(1, 0, 0, 1, 0, 0)" xlink:href="#linear-gradient" />
        <linearGradient id="linear-gradient-8" x1="24" y1="48" x2="24" y2="38.11"
            gradientTransform="matrix(1, 0, 0, 1, 0, 0)" xlink:href="#linear-gradient" />
        <linearGradient id="linear-gradient-9" x1="24" y1="-20.67" x2="24" y2="27.01"
            gradientTransform="matrix(1, 0, 0, 1, 0, 0)" xlink:href="#linear-gradient" />
        <linearGradient id="linear-gradient-10" x1="24" y1="62.21" x2="24" y2="-5.35"
            gradientTransform="matrix(1, 0, 0, 1, 0, 0)" xlink:href="#linear-gradient" />
        <linearGradient id="linear-gradient-11" x1="16.54" y1="40.25" x2="16.54" y2="14.75"
            gradientTransform="matrix(1, 0, 0, 1, 0, 0)" xlink:href="#linear-gradient" />
        <linearGradient id="linear-gradient-12" x1="376.57" y1="40.25" x2="376.57" y2="14.75"
            gradientTransform="matrix(-1, 0, 0, 1, 408.07, 0)" xlink:href="#linear-gradient" />
        <linearGradient id="linear-gradient-13" x1="8.52" y1="43.81" x2="8.52" y2="14.73"
            gradientTransform="matrix(1, 0, 0, 1, 0, 0)" xlink:href="#linear-gradient" />
        <linearGradient id="linear-gradient-14" x1="24" y1="50" x2="24" y2="20.9"
            gradientTransform="matrix(1, 0, 0, 1, 0, 0)" xlink:href="#linear-gradient" />
        <linearGradient id="linear-gradient-15" x1="24" y1="18.6" x2="24" y2="7.45"
            gradientTransform="matrix(1, 0, 0, 1, 0, 0)" xlink:href="#linear-gradient" />
        <linearGradient id="linear-gradient-16" x1="24" y1="22.75" x2="24" y2="17.14" gradientUnits="userSpaceOnUse">
            <stop offset="0" stop-color="#efda80" />
            <stop offset="0.55" stop-color="#f3c57a" />
            <stop offset="1" stop-color="#f39369" />
        </linearGradient>
        <linearGradient id="linear-gradient-17" x1="20.87" y1="34.33" x2="20.87" y2="25.72"
            gradientTransform="matrix(1, 0, 0, 1, 0, 0)" xlink:href="#linear-gradient" />
        <linearGradient id="linear-gradient-18" x1="386.88" y1="34.33" x2="386.88" y2="25.72"
            gradientTransform="matrix(-1, 0, 0, 1, 414, 0)" xlink:href="#linear-gradient" />
        <linearGradient id="linear-gradient-19" x1="-21.05" y1="5.83" x2="49.2" y2="32.96"
            gradientTransform="matrix(1, 0, 0, 1, 0, 0)" xlink:href="#linear-gradient" />
        <linearGradient id="linear-gradient-20" x1="388.52" y1="43.81" x2="388.52" y2="14.73"
            xlink:href="#linear-gradient" />
        <linearGradient id="linear-gradient-21" x1="358.95" y1="5.83" x2="429.2" y2="32.96"
            xlink:href="#linear-gradient" />
        <linearGradient id="linear-gradient-22" x1="15" y1="39.25" x2="15" y2="30.56" gradientUnits="userSpaceOnUse">
            <stop offset="0" stop-color="#273a9b" />
            <stop offset="0.56" stop-color="#202f65" />
            <stop offset="1" stop-color="#021e2f" />
        </linearGradient>
        <linearGradient id="linear-gradient-23" x1="14.25" y1="26.71" x2="14.25" y2="23.96"
            xlink:href="#linear-gradient-22" />
        <linearGradient id="linear-gradient-24" x1="33" y1="39.25" x2="33" y2="30.56"
            xlink:href="#linear-gradient-22" />
        <linearGradient id="linear-gradient-25" x1="32.25" y1="26.71" x2="32.25" y2="23.96"
            xlink:href="#linear-gradient-22" />
        <linearGradient id="linear-gradient-26" x1="12.69" y1="33.81" x2="12.69" y2="17.36"
            gradientTransform="matrix(1, 0, 0, 1, 0, 0)" xlink:href="#linear-gradient" />
        <linearGradient id="linear-gradient-27" x1="396.38" y1="33.81" x2="396.38" y2="17.36"
            gradientTransform="matrix(-1, 0, 0, 1, 431.7, 0)" xlink:href="#linear-gradient" />
    </defs>
    <title>pig, animal, wildlife, wild, farm</title>
    <g id="ART">
        <path class="cls-1"
            d="M35.86,6C40.91,6,45,10.66,45,16.41a11.23,11.23,0,0,1-1.85,6.24,4,4,0,0,1-7.37-2.29V14.43A3.44,3.44,0,0,0,32.34,11H28.06A9,9,0,0,1,35.86,6Z" />
        <path class="cls-2"
            d="M33.52,10h2.26a0,0,0,0,1,0,0v3a0,0,0,0,1,0,0h-.1a2.16,2.16,0,0,1-2.16-2.16V10a0,0,0,0,1,0,0Z"
            transform="translate(69.3 23.09) rotate(-180)" />
        <path class="cls-3"
            d="M44.47,18.29c0-5.75-4.09-10.41-9.14-10.41A8.58,8.58,0,0,0,28.83,11h-.77a9,9,0,0,1,7.8-5C40.91,6,45,10.66,45,16.41a11.46,11.46,0,0,1-.75,4.1A11.62,11.62,0,0,0,44.47,18.29Z" />
        <path class="cls-4"
            d="M12.14,6C7.09,6,3,10.66,3,16.41a11.23,11.23,0,0,0,1.85,6.24,4,4,0,0,0,7.37-2.29V14.43A3.44,3.44,0,0,1,15.66,11h4.28A9,9,0,0,0,12.14,6Z" />
        <path class="cls-5"
            d="M14.38,10h.1a0,0,0,0,1,0,0v3a0,0,0,0,1,0,0H12.22a0,0,0,0,1,0,0v-.87A2.16,2.16,0,0,1,14.38,10Z" />
        <path class="cls-6"
            d="M3.53,18.29c0-5.75,4.09-10.41,9.14-10.41A8.58,8.58,0,0,1,19.17,11h.77a9,9,0,0,0-7.8-5C7.09,6,3,10.66,3,16.41a11.46,11.46,0,0,0,.75,4.1A11.62,11.62,0,0,1,3.53,18.29Z" />
        <ellipse class="cls-7" cx="24" cy="33.75" rx="15" ry="11.25" />
        <path class="cls-8"
            d="M39,33.75c0-6.21-6.72-11.25-15-11.25s-15,5-15,11.25c0,4.13,3,7.73,7.39,9.68.53,0,1.06.07,1.61.07a19.71,19.71,0,0,0,3.23-.26,16.85,16.85,0,0,1,5.54,0A19.71,19.71,0,0,0,30,43.5c.54,0,1.08,0,1.61-.07C36,41.48,39,37.88,39,33.75Z" />
        <path class="cls-9"
            d="M41.25,23.33a9.07,9.07,0,0,1-2.83-4.8C36.63,11.29,30.86,6,24,6S11.37,11.29,9.58,18.52a9.07,9.07,0,0,1-2.83,4.8A9.78,9.78,0,0,0,3,30.75C3,37,9.72,42,18,42a19.71,19.71,0,0,0,3.23-.26,16.85,16.85,0,0,1,5.54,0A19.71,19.71,0,0,0,30,42c8.28,0,15-5,15-11.25A9.78,9.78,0,0,0,41.25,23.33Z" />
        <path class="cls-10"
            d="M41.25,23.33a9.07,9.07,0,0,1-2.83-4.8c-1.79-7.23-7.56-5.69-14.42-5.69S11.37,11.29,9.58,18.52a9.07,9.07,0,0,1-2.83,4.8A9.78,9.78,0,0,0,3,30.75C3,37,9.72,42,18,42a19.71,19.71,0,0,0,3.23-.26,16.85,16.85,0,0,1,5.54,0A19.71,19.71,0,0,0,30,42c8.28,0,15-5,15-11.25A9.78,9.78,0,0,0,41.25,23.33Z" />
        <path class="cls-11" d="M21,24c0,1.65-1.69,3-3.77,3S12,27.4,12,25.75,15.19,21,17.27,21,21,22.33,21,24Z" />
        <path class="cls-12" d="M27,24c0,1.65,1.69,3,3.77,3S36,27.4,36,25.75,32.85,21,30.77,21,27,22.33,27,24Z" />
        <path class="cls-13"
            d="M9.58,18.52a9.07,9.07,0,0,1-2.83,4.8A11.88,11.88,0,0,0,4.83,25.4l0,0a4,4,0,0,0,7.37-2.29V17.23" />
        <path class="cls-14"
            d="M32.2,30.88c0,3-3.67,8.13-8.2,8.13s-8.2-5.08-8.2-8.12S19.47,27,24,27,32.2,27.83,32.2,30.88Z" />
        <path class="cls-15"
            d="M32.2,30.88c0,3-3.67,5.88-8.2,5.88s-8.2-2.83-8.2-5.87S19.47,27,24,27,32.2,27.83,32.2,30.88Z" />
        <path class="cls-16"
            d="M24,30.38c4,0,7.36-.5,8.06,1.51a3.93,3.93,0,0,0,.14-1c0-3-3.67-3.92-8.2-3.92s-8.2.87-8.2,3.92a3.93,3.93,0,0,0,.14,1C16.64,29.87,20,30.38,24,30.38Z" />
        <path class="cls-17" d="M22.33,32.54c0,.81-.44.67-1.25.67s-1.67.14-1.67-.67a1.46,1.46,0,1,1,2.92,0Z" />
        <path class="cls-18" d="M25.67,32.54c0,.81.44.67,1.25.67s1.67.14,1.67-.67a1.46,1.46,0,1,0-2.92,0Z" />
        <path class="cls-19"
            d="M12.22,11.08a25.27,25.27,0,0,0-3.5,6.82c-.46,1.85-.8,3.36-2.25,4.59-.21.18-.12,1.19-.32,1.38a4.07,4.07,0,0,0,6.07-3.53V11.08Z" />
        <path class="cls-20"
            d="M38.42,18.52a9.07,9.07,0,0,0,2.83,4.8,11.88,11.88,0,0,1,1.92,2.08l0,0a4,4,0,0,1-7.37-2.29V17.23" />
        <path class="cls-21"
            d="M35.78,11.08a25.27,25.27,0,0,1,3.5,6.82c.46,1.85.8,3.36,2.25,4.59.21.18.12,1.19.32,1.38a4.07,4.07,0,0,1-6.07-3.53V11.08Z" />
        <circle class="cls-22" cx="15" cy="25.5" r="1.5" />
        <path class="cls-23" d="M15,24a1.5,1.5,0,0,0-1.5,1.5H15Z" />
        <circle class="cls-24" cx="33" cy="25.5" r="1.5" />
        <path class="cls-25" d="M33,24a1.5,1.5,0,0,0-1.5,1.5H33Z" />
        <path class="cls-26"
            d="M15.34,28.5c0,.83-1.19.56-2.65.56S10,29.33,10,28.5,11.22,27,12.69,27,15.34,27.67,15.34,28.5Z" />
        <path class="cls-27"
            d="M32.66,28.5c0,.83,1.19.56,2.65.56S38,29.33,38,28.5,36.78,27,35.31,27,32.66,27.67,32.66,28.5Z" />
    </g>
</svg>