<svg t="1632843100759" class="icon" viewBox="0 0 1024 1024" version="1.1" xmlns="http://www.w3.org/2000/svg" p-id="1529" width="48" height="48" data-spm-anchor-id="a313x.7781069.0.i7"><path d="M430.1 927.7h-278v-571l89 182.7z" fill="#F7BC3A" p-id="1530"></path><path d="M524 245.3v683H227.8v-5.5h-0.1V555.6l0.1-0.1 92.7-97.1z" fill="#F7BC3A" p-id="1531"></path><path d="M618.1 928.3h278.1v-571h-0.1L807.2 540z" fill="#E89E01" p-id="1532"></path><path d="M522.4 245.2v683h296.2V555.5l-92.7-97.2z" fill="#E89E01" p-id="1533" data-spm-anchor-id="a313x.7781069.0.i8" class="selected"></path><path d="M522.8 452l-62.7 69.8 62.3 58.1 65.7-61.5z" fill="#900058" p-id="1534"></path><path d="M916 782.1H140.7c-6.6 0-12-5.4-12-12v-4.6c0-6.6 5.4-12 12-12H916c6.6 0 12 5.4 12 12v4.6c0 6.6-5.4 12-12 12z" fill="#E8E8E8" p-id="1535"></path><path d="M192 767.8m-14.3 0a14.3 14.3 0 1 0 28.6 0 14.3 14.3 0 1 0-28.6 0Z" fill="#BFBFBF" p-id="1536"></path><path d="M320.1 768m-14.3 0a14.3 14.3 0 1 0 28.6 0 14.3 14.3 0 1 0-28.6 0Z" fill="#BFBFBF" p-id="1537"></path><path d="M448.1 768m-14.3 0a14.3 14.3 0 1 0 28.6 0 14.3 14.3 0 1 0-28.6 0Z" fill="#BFBFBF" p-id="1538"></path><path d="M576.1 768m-14.3 0a14.3 14.3 0 1 0 28.6 0 14.3 14.3 0 1 0-28.6 0Z" fill="#BFBFBF" p-id="1539"></path><path d="M707.5 768m-14.3 0a14.3 14.3 0 1 0 28.6 0 14.3 14.3 0 1 0-28.6 0Z" fill="#BFBFBF" p-id="1540"></path><path d="M834.1 767.8m-14.3 0a14.3 14.3 0 1 0 28.6 0 14.3 14.3 0 1 0-28.6 0Z" fill="#BFBFBF" p-id="1541"></path></svg>
