<svg xmlns="http://www.w3.org/2000/svg" xmlns:xlink="http://www.w3.org/1999/xlink" viewBox="0 0 48 48"><defs><style>.cls-1{fill:url(#linear-gradient);}.cls-2{fill:url(#linear-gradient-2);}.cls-3{fill:url(#linear-gradient-3);}.cls-4{fill:url(#linear-gradient-4);}.cls-5{fill:url(#linear-gradient-5);}.cls-6{fill:url(#linear-gradient-6);}.cls-7{fill:url(#linear-gradient-7);}.cls-8{fill:url(#linear-gradient-8);}.cls-9{fill:url(#linear-gradient-9);}.cls-10{fill:url(#linear-gradient-10);}.cls-11{fill:url(#linear-gradient-11);}.cls-12{fill:url(#linear-gradient-12);}.cls-13{fill:url(#linear-gradient-13);}.cls-14{fill:url(#linear-gradient-14);}.cls-15{fill:url(#linear-gradient-15);}.cls-16{fill:url(#linear-gradient-16);}.cls-17{fill:url(#linear-gradient-17);}.cls-18{fill:url(#linear-gradient-18);}.cls-19{fill:url(#linear-gradient-19);}.cls-20{fill:url(#linear-gradient-20);}.cls-21{fill:url(#linear-gradient-21);}.cls-22{fill:url(#linear-gradient-22);}.cls-23{fill:url(#linear-gradient-23);}.cls-24{fill:url(#linear-gradient-24);}</style><linearGradient id="linear-gradient" x1="9.37" y1="21.81" x2="9.38" y2="0.48" gradientUnits="userSpaceOnUse"><stop offset="0" stop-color="#c0c0c0"/><stop offset="0.55" stop-color="#f39369"/><stop offset="1" stop-color="#e94867"/></linearGradient><linearGradient id="linear-gradient-2" x1="6.4" y1="22.69" x2="0.24" y2="37.27" xlink:href="#linear-gradient"/><linearGradient id="linear-gradient-3" x1="8.42" y1="28.41" x2="8.42" y2="9.75" xlink:href="#linear-gradient"/><linearGradient id="linear-gradient-4" x1="384.38" y1="21.81" x2="384.38" y2="0.48" gradientTransform="matrix(-1, 0, 0, 1, 423, 0)" xlink:href="#linear-gradient"/><linearGradient id="linear-gradient-5" x1="381.4" y1="22.69" x2="375.24" y2="37.27" gradientTransform="matrix(-1, 0, 0, 1, 423, 0)" xlink:href="#linear-gradient"/><linearGradient id="linear-gradient-6" x1="383.42" y1="28.41" x2="383.42" y2="9.75" gradientTransform="matrix(-1, 0, 0, 1, 423, 0)" xlink:href="#linear-gradient"/><linearGradient id="linear-gradient-7" x1="24" y1="-47.75" x2="24" y2="50.01" gradientUnits="userSpaceOnUse"><stop offset="0" stop-color="#c0c0c0"/><stop offset="0.49" stop-color="#6458ED"/><stop offset="1" stop-color="#533EDD"/></linearGradient><linearGradient id="linear-gradient-8" x1="24" y1="83.07" x2="24" y2="-5.26" xlink:href="#linear-gradient-7"/><linearGradient id="linear-gradient-9" x1="24" y1="73.5" x2="24" y2="19.43" xlink:href="#linear-gradient-7"/><linearGradient id="linear-gradient-10" x1="-34.17" y1="3.98" x2="98.92" y2="55.38" xlink:href="#linear-gradient"/><linearGradient id="linear-gradient-11" x1="24" y1="39.42" x2="24" y2="31.19" xlink:href="#linear-gradient"/><linearGradient id="linear-gradient-12" x1="16.34" y1="36.31" x2="16.34" y2="13.07" xlink:href="#linear-gradient"/><linearGradient id="linear-gradient-13" x1="31.5" y1="36.31" x2="31.5" y2="13.07" xlink:href="#linear-gradient"/><linearGradient id="linear-gradient-14" x1="16.5" y1="39.25" x2="16.5" y2="30.56" gradientUnits="userSpaceOnUse"><stop offset="0" stop-color="#273a9b"/><stop offset="0.56" stop-color="#202f65"/><stop offset="1" stop-color="#021e2f"/></linearGradient><linearGradient id="linear-gradient-15" x1="15.75" y1="26.71" x2="15.75" y2="23.96" xlink:href="#linear-gradient-14"/><linearGradient id="linear-gradient-16" x1="31.5" y1="39.25" x2="31.5" y2="30.56" xlink:href="#linear-gradient-14"/><linearGradient id="linear-gradient-17" x1="30.75" y1="26.71" x2="30.75" y2="23.96" xlink:href="#linear-gradient-14"/><linearGradient id="linear-gradient-18" x1="24" y1="18.83" x2="24" y2="45.57" xlink:href="#linear-gradient"/><linearGradient id="linear-gradient-19" x1="24" y1="42.58" x2="24" y2="29.42" xlink:href="#linear-gradient"/><linearGradient id="linear-gradient-20" x1="24" y1="44.28" x2="24" y2="15.86" xlink:href="#linear-gradient-7"/><linearGradient id="linear-gradient-21" x1="24" y1="33.35" x2="24" y2="22.91" xlink:href="#linear-gradient-7"/><linearGradient id="linear-gradient-22" x1="24" y1="40.75" x2="24" y2="23.76" xlink:href="#linear-gradient-7"/><linearGradient id="linear-gradient-23" x1="21.98" y1="40.69" x2="21.98" y2="25.87" xlink:href="#linear-gradient-7"/><linearGradient id="linear-gradient-24" x1="26.02" y1="40.69" x2="26.02" y2="25.87" xlink:href="#linear-gradient-7"/></defs><title>monkey, animal, wildlife, wild, jungle</title><g id="ART"><circle class="cls-1" cx="9.38" cy="15.38" r="6.38"/><path class="cls-2" d="M9.38,9a6.36,6.36,0,0,0-5,2.48,6.37,6.37,0,0,1,8.94,8.94A6.37,6.37,0,0,0,9.38,9Z"/><circle class="cls-3" cx="8.42" cy="15.92" r="3.58"/><circle class="cls-4" cx="38.63" cy="15.37" r="6.38"/><path class="cls-5" d="M38.63,9a6.36,6.36,0,0,1,5,2.48,6.37,6.37,0,0,0-8.94,8.94A6.37,6.37,0,0,1,38.63,9Z"/><circle class="cls-6" cx="39.58" cy="15.92" r="3.58"/><path class="cls-7" d="M45,29.74C45,41.44,36.56,45,24,45S3,41.44,3,29.74,11.44,6,24,6,45,18,45,29.74Z"/><path class="cls-8" d="M24,13.5c-10.62,0-18.29,4.1-20.4,13.83a15.35,15.35,0,0,0,.05,7.4C5.82,42.47,13.44,45,24,45s18.18-2.53,20.35-10.27a15.35,15.35,0,0,0,.05-7.4C42.29,17.6,34.62,13.5,24,13.5Z"/><path class="cls-9" d="M39,26.39a8.34,8.34,0,0,0-8.11-7.64,8.21,8.21,0,0,0-5.95,2.42,1.31,1.31,0,0,1-1.84,0,8.21,8.21,0,0,0-5.95-2.42A8.34,8.34,0,0,0,9,26.41a8.24,8.24,0,0,0,4.12,7.74A11.5,11.5,0,0,1,16.9,37.4a8.53,8.53,0,0,0,14.3,0,11.32,11.32,0,0,1,3.69-3.21A8.25,8.25,0,0,0,39,26.39Z"/><path class="cls-10" d="M39,24.14a8.34,8.34,0,0,0-8.11-7.64,8.21,8.21,0,0,0-5.95,2.42,1.31,1.31,0,0,1-1.84,0,8.21,8.21,0,0,0-5.95-2.42A8.34,8.34,0,0,0,9,24.16a8.24,8.24,0,0,0,4.12,7.74,11.5,11.5,0,0,1,3.76,3.25,8.53,8.53,0,0,0,14.3,0,11.32,11.32,0,0,1,3.69-3.21A8.25,8.25,0,0,0,39,24.14Z"/><path class="cls-11" d="M27.6,29.5a5.38,5.38,0,0,0-1,.1,13.37,13.37,0,0,1-5.13,0,5.38,5.38,0,0,0-1-.1,4.77,4.77,0,0,0-4.91,4.1,9.43,9.43,0,0,1,1.41,1.55,9.12,9.12,0,0,0,4.2,3.31,5.21,5.21,0,0,0,1.74-.54,2.48,2.48,0,0,1,2.32,0,5.22,5.22,0,0,0,1.78.55A9.13,9.13,0,0,0,31.2,35.1a9.12,9.12,0,0,1,1.32-1.47A4.77,4.77,0,0,0,27.6,29.5Z"/><path class="cls-12" d="M19.5,25.13c0,1.59-1.41,1.88-3.16,1.88s-3.16-.29-3.16-1.88,1.41-3.87,3.16-3.87S19.5,23.54,19.5,25.13Z"/><path class="cls-13" d="M34.66,25.13c0,1.59-1.41,1.88-3.16,1.88s-3.16-.29-3.16-1.88,1.41-3.87,3.16-3.87S34.66,23.54,34.66,25.13Z"/><circle class="cls-14" cx="16.5" cy="25.5" r="1.5"/><path class="cls-15" d="M16.5,24A1.5,1.5,0,0,0,15,25.5h1.5Z"/><circle class="cls-16" cx="31.5" cy="25.5" r="1.5"/><path class="cls-17" d="M31.5,24A1.5,1.5,0,0,0,30,25.5h1.5Z"/><path class="cls-18" d="M27.6,28.5a5.38,5.38,0,0,0-1,.1,13.37,13.37,0,0,1-5.13,0,5.38,5.38,0,0,0-1-.1,4.74,4.74,0,0,0-5,4.5,4.74,4.74,0,0,0,5,4.5,5.26,5.26,0,0,0,2.44-.59,2.48,2.48,0,0,1,2.32,0,5.26,5.26,0,0,0,2.44.59,4.74,4.74,0,0,0,5-4.5A4.74,4.74,0,0,0,27.6,28.5Z"/><path class="cls-19" d="M27.51,28.65c0,.91-1.57,5.6-3.51,5.6s-3.51-4.69-3.51-5.6"/><path class="cls-20" d="M27.51,28.65A3.82,3.82,0,0,1,24,31.5a3.82,3.82,0,0,1-3.51-2.85c0-.91,1.57-1.65,3.51-1.65S27.51,27.74,27.51,28.65Z"/><path class="cls-21" d="M20.49,28.65c0-.91,1.57-1.65,3.51-1.65s3.51.74,3.51,1.65"/><path class="cls-22" d="M22.19,28.79a1.22,1.22,0,0,0-.2,2,3.25,3.25,0,0,0,4,0,1.22,1.22,0,0,0-.2-2,7,7,0,0,0-3.61,0Z"/><path class="cls-23" d="M21.48,29.75a1.64,1.64,0,0,0-.48.08,4.29,4.29,0,0,0,1.93,1.46,1.17,1.17,0,0,0,0-.23A1.41,1.41,0,0,0,21.48,29.75Z"/><path class="cls-24" d="M27,29.83a1.64,1.64,0,0,0-.48-.08A1.41,1.41,0,0,0,25,31.06a1.17,1.17,0,0,0,0,.23A4.29,4.29,0,0,0,27,29.83Z"/></g></svg>
