<svg xmlns="http://www.w3.org/2000/svg" xmlns:xlink="http://www.w3.org/1999/xlink" viewBox="0 0 48 48"><defs><style>.cls-1{fill:url(#linear-gradient);}.cls-2{fill:url(#linear-gradient-2);}.cls-3{fill:url(#linear-gradient-3);}</style><linearGradient id="linear-gradient" x1="24" y1="89.33" x2="24" y2="-16.41" gradientUnits="userSpaceOnUse"><stop offset="0" stop-color="#f3c57a"/><stop offset="0.49" stop-color="#6458ED"/><stop offset="1" stop-color="#533EDD"/></linearGradient><linearGradient id="linear-gradient-2" x1="-15.78" y1="25.1" x2="57.59" y2="21.97" xlink:href="#linear-gradient"/><linearGradient id="linear-gradient-3" x1="24" y1="17" x2="24" y2="-7" gradientUnits="userSpaceOnUse"><stop offset="0" stop-color="#fff"/><stop offset="0.52" stop-color="#cce2e6"/><stop offset="1" stop-color="#8fa1bb"/></linearGradient></defs><title>cracked, egg, animal, food, chicken</title><g id="ART"><path class="cls-1" d="M42,26.58C42,38.18,33.94,45,24,45S6,38.18,6,26.58,14.06,3,24,3,42,15,42,26.58Z"/><path class="cls-2" d="M31.91,5.65A13.78,13.78,0,0,0,24,3C14.06,3,6,15,6,26.58c0,9.13,5,15.28,12,17.49C13.46,41,10.5,35.76,10.5,28.75a26.49,26.49,0,0,1,.43-4.7,1.89,1.89,0,0,1,2.56-1.4,4.46,4.46,0,0,0,2.34.19,4.52,4.52,0,0,0,3.57-3.51A4.4,4.4,0,0,0,19,16.44a1.76,1.76,0,0,1,0-1.61,3.7,3.7,0,0,0-.1-3.68,1.84,1.84,0,0,1,.37-2.37A14.3,14.3,0,0,1,28.5,5.17,12.59,12.59,0,0,1,31.91,5.65Z"/><path class="cls-3" d="M34.61,27.53l-5.3-5.3L24,27.53l-5.3-5.3-5.3,5.3-5.3-5.3-2,2C6,25,6,25.79,6,26.58s0,1.28.08,1.89l2-2,3.18,3.18h0l2.12,2.12,2.12-2.12h0l3.18-3.18,3.18,3.18h0L24,31.77l2.12-2.12,3.18-3.18,3.18,3.18h0l2.12,2.12,2.12-2.12h0l3.18-3.18,2,2c0-.62.08-1.25.08-1.89s0-1.59-.11-2.38l-2-2Z"/></g></svg>
