<svg xmlns="http://www.w3.org/2000/svg" xmlns:xlink="http://www.w3.org/1999/xlink" viewBox="0 0 48 48">
    <defs>
        <style>
            .cls-1 {
                fill: url(#linear-gradient);
            }

            .cls-2 {
                fill: url(#linear-gradient-2);
            }

            .cls-3 {
                fill: url(#linear-gradient-3);
            }

            .cls-4 {
                fill: url(#linear-gradient-4);
            }

            .cls-5 {
                fill: url(#linear-gradient-5);
            }

            .cls-6 {
                fill: url(#linear-gradient-6);
            }

            .cls-7 {
                fill: url(#linear-gradient-7);
            }

            .cls-8 {
                fill: url(#linear-gradient-8);
            }

            .cls-9 {
                fill: url(#linear-gradient-9);
            }

            .cls-10 {
                fill: url(#linear-gradient-10);
            }

            .cls-11 {
                fill: url(#linear-gradient-11);
            }

            .cls-12 {
                fill: url(#linear-gradient-12);
            }

            .cls-13 {
                fill: url(#linear-gradient-13);
            }

            .cls-14 {
                fill: url(#linear-gradient-14);
            }

            .cls-15 {
                fill: url(#linear-gradient-15);
            }

            .cls-16 {
                fill: url(#linear-gradient-16);
            }

            .cls-17 {
                fill: url(#linear-gradient-17);
            }

            .cls-18 {
                fill: url(#linear-gradient-18);
            }

            .cls-19 {
                fill: url(#linear-gradient-19);
            }

            .cls-20 {
                fill: url(#linear-gradient-20);
            }

            .cls-21 {
                fill: url(#linear-gradient-21);
            }
        </style>
        <linearGradient id="linear-gradient" x1="12" y1="-44.57" x2="12" y2="89.88" gradientUnits="userSpaceOnUse">
            <stop offset="0" stop-color="#27e9de" />
            <stop offset="0.52" stop-color="#03a4ec" />
            <stop offset="1" stop-color="#2547a8" />
        </linearGradient>
        <linearGradient id="linear-gradient-2" x1="-8.28" y1="40.67" x2="20.72" y2="1.17"
            xlink:href="#linear-gradient" />
        <linearGradient id="linear-gradient-3" x1="380" y1="-44.57" x2="380" y2="89.88"
            gradientTransform="matrix(1, 0, 0, -1, -344, 27.04)" xlink:href="#linear-gradient" />
        <linearGradient id="linear-gradient-4" x1="359.72" y1="40.67" x2="388.72" y2="1.17"
            gradientTransform="matrix(-1, 0, 0, 1, 416, 0)" xlink:href="#linear-gradient" />
        <linearGradient id="linear-gradient-5" x1="107.86" y1="-19.05" x2="105.59" y2="29.68"
            gradientTransform="translate(-86.21 70.89) rotate(-18.38)" gradientUnits="userSpaceOnUse">
            <stop offset="0" stop-color="#fff" />
            <stop offset="0.52" stop-color="#cce2e6" />
            <stop offset="1" stop-color="#8fa1bb" />
        </linearGradient>
        <linearGradient id="linear-gradient-6" x1="4.87" y1="42.25" x2="18.24" y2="27"
            gradientTransform="matrix(1, 0, 0, 1, 0, 0)" xlink:href="#linear-gradient-5" />
        <linearGradient id="linear-gradient-7" x1="434.31" y1="89.42" x2="432.03" y2="138.16"
            gradientTransform="matrix(-0.95, -0.32, -0.32, 0.95, 478.21, 70.89)" xlink:href="#linear-gradient-5" />
        <linearGradient id="linear-gradient-8" x1="35.32" y1="44.64" x2="33.76" y2="29.02"
            gradientTransform="matrix(1, 0, 0, 1, 0, 0)" xlink:href="#linear-gradient-5" />
        <linearGradient id="linear-gradient-9" x1="24" y1="-3.42" x2="24" y2="33.01" xlink:href="#linear-gradient" />
        <linearGradient id="linear-gradient-10" x1="24" y1="66.25" x2="24" y2="-9.73" xlink:href="#linear-gradient" />
        <linearGradient id="linear-gradient-11" x1="15.36" y1="44.58" x2="15.36" y2="13.39"
            xlink:href="#linear-gradient" />
        <linearGradient id="linear-gradient-12" x1="367.87" y1="44.58" x2="367.87" y2="13.39"
            gradientTransform="matrix(-1, 0, 0, 1, 400.51, 0)" xlink:href="#linear-gradient" />
        <linearGradient id="linear-gradient-13" x1="15" y1="38.5" x2="15" y2="29.81" gradientUnits="userSpaceOnUse">
            <stop offset="0" stop-color="#273a9b" />
            <stop offset="0.56" stop-color="#202f65" />
            <stop offset="1" stop-color="#021e2f" />
        </linearGradient>
        <linearGradient id="linear-gradient-14" x1="14.25" y1="25.96" x2="14.25" y2="23.21"
            xlink:href="#linear-gradient-13" />
        <linearGradient id="linear-gradient-15" x1="33" y1="38.5" x2="33" y2="29.81" xlink:href="#linear-gradient-13" />
        <linearGradient id="linear-gradient-16" x1="32.25" y1="25.96" x2="32.25" y2="23.21"
            xlink:href="#linear-gradient-13" />
        <linearGradient id="linear-gradient-17" x1="9.27" y1="42.84" x2="33.4" y2="22.09"
            gradientTransform="matrix(1, 0.02, -0.02, 1, 6.9, -4.12)" xlink:href="#linear-gradient" />
        <linearGradient id="linear-gradient-18" x1="20.63" y1="45.22" x2="44.75" y2="24.47"
            xlink:href="#linear-gradient" />
        <linearGradient id="linear-gradient-19" x1="22.56" y1="47.47" x2="46.69" y2="26.72"
            xlink:href="#linear-gradient" />
        <linearGradient id="linear-gradient-20" x1="15.15" y1="19.5" x2="15.15" y2="38.58"
            xlink:href="#linear-gradient" />
        <linearGradient id="linear-gradient-21" x1="32.85" y1="19.5" x2="32.85" y2="38.58"
            xlink:href="#linear-gradient" />
    </defs>
    <title>elephant, animal, wildlife, wild, africa</title>
    <g id="ART">
        <path class="cls-1"
            d="M6.59,3h4.72A9.68,9.68,0,0,1,21,12.68V24a0,0,0,0,1,0,0H12.94A9.94,9.94,0,0,1,3,14.1V6.59A3.59,3.59,0,0,1,6.59,3Z" />
        <path class="cls-2"
            d="M12.94,24h5.18V15.56A9.68,9.68,0,0,0,8.44,5.88H3.07A3.61,3.61,0,0,0,3,6.59V14.1A9.94,9.94,0,0,0,12.94,24Z" />
        <path class="cls-3"
            d="M36.94,3H45a0,0,0,0,1,0,0V14.36A9.68,9.68,0,0,1,35.32,24H30.59A3.59,3.59,0,0,1,27,20.45V12.94A9.94,9.94,0,0,1,36.94,3Z"
            transform="translate(72 27.04) rotate(-180)" />
        <path class="cls-4"
            d="M35.06,24H29.88V15.56a9.68,9.68,0,0,1,9.68-9.68h5.37a3.61,3.61,0,0,1,.07.71V14.1A9.94,9.94,0,0,1,35.06,24Z" />
        <path class="cls-5"
            d="M12.14,27.41h0A1.89,1.89,0,0,0,11,30.72,6,6,0,0,1,12.79,35,6.68,6.68,0,0,1,12,38.15a.59.59,0,0,0,.66.84c2.58-.65,5-3,5-5.75A5.68,5.68,0,0,0,12.14,27.41Z" />
        <path class="cls-6"
            d="M17.67,33.23a5.68,5.68,0,0,0-5.53-5.82h0A1.89,1.89,0,0,0,11,30.72a6,6,0,0,1,1.77,3.68,18.7,18.7,0,0,0,2.54,1.34,7.72,7.72,0,0,1,1.24.68A5.25,5.25,0,0,0,17.67,33.23Z" />
        <path class="cls-7"
            d="M35.86,27.41h0A1.89,1.89,0,0,1,37,30.72,6,6,0,0,0,35.21,35,6.68,6.68,0,0,0,36,38.15a.59.59,0,0,1-.66.84c-2.58-.65-5-3-5-5.75A5.68,5.68,0,0,1,35.86,27.41Z" />
        <path class="cls-8"
            d="M35.91,27.41h0a5.68,5.68,0,0,0-5.53,5.82,5.21,5.21,0,0,0,1,3l.13-.06a19.16,19.16,0,0,0,3.75-1.82A6,6,0,0,1,37,30.72,1.89,1.89,0,0,0,35.91,27.41Z" />
        <path class="cls-9"
            d="M41.69,22.5C41.69,15,33.77,9,24,9S6.31,15,6.31,22.5c0,5,3.62,9.42,9,11.74a8.67,8.67,0,0,1,4.08,3.85,15.62,15.62,0,0,0,7.74,6.58,3.33,3.33,0,0,0,2.94-.08,3.19,3.19,0,0,0,1.21-4.32A11,11,0,0,1,30.16,37a2,2,0,0,1,1.33-2.28C37.51,32.56,41.69,27.91,41.69,22.5Z" />
        <path class="cls-10"
            d="M41.69,22.5c0-7.46-7.92-9-17.69-9S6.31,15,6.31,22.5c0,5,3.62,9.42,9,11.74a8.67,8.67,0,0,1,4.08,3.85,15.62,15.62,0,0,0,7.74,6.58,3.33,3.33,0,0,0,2.94-.08,3.19,3.19,0,0,0,1.21-4.32A11,11,0,0,1,30.16,37a2,2,0,0,1,1.33-2.28C37.51,32.56,41.69,27.91,41.69,22.5Z" />
        <path class="cls-11"
            d="M19.5,24.75c0,2.07-4.18,3.75-5.64,3.75s-2.64-1.68-2.64-3.75S12.4,21,13.86,21,19.5,22.68,19.5,24.75Z" />
        <path class="cls-12"
            d="M28.5,24.75c0,2.07,4.18,3.75,5.64,3.75s2.64-1.68,2.64-3.75S35.6,21,34.14,21,28.5,22.68,28.5,24.75Z" />
        <circle class="cls-13" cx="15" cy="24.75" r="1.5" />
        <path class="cls-14" d="M15,23.25a1.5,1.5,0,0,0-1.5,1.5H15Z" />
        <circle class="cls-15" cx="33" cy="24.75" r="1.5" />
        <path class="cls-16" d="M33,23.25a1.5,1.5,0,0,0-1.5,1.5H33Z" />
        <path class="cls-17"
            d="M22.41,35.75c-1.09-2.89-1-5.8.14-7.58a1.06,1.06,0,0,0-1.18-1.62h0c-2.6,1-3.46,5.07-1.93,9.12a10.73,10.73,0,0,0,2.55,4,1.13,1.13,0,0,0,1.7-1.47A11.77,11.77,0,0,1,22.41,35.75Z" />
        <circle class="cls-18" cx="25.27" cy="41.23" r="0.94" />
        <circle class="cls-19" cx="27.85" cy="42.92" r="0.65" />
        <ellipse class="cls-20" cx="15.15" cy="27.74" rx="2.37" ry="1.49" />
        <ellipse class="cls-21" cx="32.85" cy="27.74" rx="2.37" ry="1.49" />
    </g>
</svg>