<svg xmlns="http://www.w3.org/2000/svg" xmlns:xlink="http://www.w3.org/1999/xlink" viewBox="0 0 48 48">
    <defs>
        <style>
            .cls-1 {
                fill: url(#linear-gradient);
            }

            .cls-2 {
                fill: url(#linear-gradient-2);
            }

            .cls-3 {
                fill: url(#linear-gradient-3);
            }

            .cls-4 {
                fill: url(#linear-gradient-4);
            }

            .cls-5 {
                fill: url(#linear-gradient-5);
            }

            .cls-6 {
                fill: url(#linear-gradient-6);
            }

            .cls-7 {
                fill: url(#linear-gradient-7);
            }

            .cls-8 {
                fill: url(#linear-gradient-8);
            }

            .cls-9 {
                fill: url(#linear-gradient-9);
            }

            .cls-10 {
                fill: url(#linear-gradient-10);
            }

            .cls-11 {
                fill: url(#linear-gradient-11);
            }

            .cls-12 {
                fill: url(#linear-gradient-12);
            }

            .cls-13 {
                fill: url(#linear-gradient-13);
            }

            .cls-14 {
                fill: url(#linear-gradient-14);
            }

            .cls-15 {
                fill: url(#linear-gradient-15);
            }

            .cls-16 {
                fill: url(#linear-gradient-16);
            }
        </style>
        <linearGradient id="linear-gradient" x1="0.25" y1="36.76" x2="16" y2="-4.66" gradientUnits="userSpaceOnUse">
            <stop offset="0" stop-color="#27e9de" />
            <stop offset="0.49" stop-color="#03a4ec" />
            <stop offset="1" stop-color="#2547a8" />
        </linearGradient>
        <linearGradient id="linear-gradient-2" x1="-3.29" y1="32.37" x2="12.15" y2="7.37"
            xlink:href="#linear-gradient" />
        <linearGradient id="linear-gradient-3" x1="-1253.9" y1="36.76" x2="-1238.15" y2="-4.66"
            gradientTransform="matrix(-1, 0, 0, 1, -1206, 0)" xlink:href="#linear-gradient" />
        <linearGradient id="linear-gradient-4" x1="-1257.44" y1="32.37" x2="-1242" y2="7.37"
            gradientTransform="matrix(-1, 0, 0, 1, -1206, 0)" xlink:href="#linear-gradient" />
        <linearGradient id="linear-gradient-5" x1="24" y1="-0.42" x2="24" y2="30.93" xlink:href="#linear-gradient" />
        <linearGradient id="linear-gradient-6" x1="24" y1="60.03" x2="24" y2="10.46" xlink:href="#linear-gradient" />
        <linearGradient id="linear-gradient-7" x1="12.78" y1="60.83" x2="12.78" y2="18.74"
            gradientUnits="userSpaceOnUse">
            <stop offset="0" stop-color="#fff" />
            <stop offset="0.55" stop-color="#cce2e6" />
            <stop offset="1" stop-color="#8fa1bb" />
        </linearGradient>
        <linearGradient id="linear-gradient-8" x1="15.53" y1="39.42" x2="15.53" y2="14.08"
            xlink:href="#linear-gradient" />
        <linearGradient id="linear-gradient-9" x1="35.22" y1="60.83" x2="35.22" y2="18.74"
            xlink:href="#linear-gradient-7" />
        <linearGradient id="linear-gradient-10" x1="32.47" y1="39.42" x2="32.47" y2="14.08"
            xlink:href="#linear-gradient" />
        <linearGradient id="linear-gradient-11" x1="16.62" y1="44.68" x2="16.62" y2="36.35"
            gradientUnits="userSpaceOnUse">
            <stop offset="0" stop-color="#273a9b" />
            <stop offset="0.56" stop-color="#202f65" />
            <stop offset="1" stop-color="#021e2f" />
        </linearGradient>
        <linearGradient id="linear-gradient-12" x1="15.9" y1="32.66" x2="15.9" y2="30.02"
            xlink:href="#linear-gradient-11" />
        <linearGradient id="linear-gradient-13" x1="31.38" y1="44.68" x2="31.38" y2="36.35"
            xlink:href="#linear-gradient-11" />
        <linearGradient id="linear-gradient-14" x1="30.66" y1="32.66" x2="30.66" y2="30.02"
            xlink:href="#linear-gradient-11" />
        <linearGradient id="linear-gradient-15" x1="24" y1="48.21" x2="24" y2="33.64"
            xlink:href="#linear-gradient-11" />
        <linearGradient id="linear-gradient-16" x1="24" y1="47.62" x2="24" y2="39.25"
            xlink:href="#linear-gradient-11" />
    </defs>
    <title>fox, animal, wildlife, wild</title>
    <g id="ART">
        <path class="cls-1" d="M5.84,3a1.61,1.61,0,0,0-1.5.85A11.24,11.24,0,0,0,14.7,20.41,11.24,11.24,0,0,0,5.84,3Z" />
        <path class="cls-2"
            d="M8.16,6.43A3.39,3.39,0,0,0,3,9.37,11.18,11.18,0,0,0,12.7,20.29a11.21,11.21,0,0,0-.61-9.81A11.11,11.11,0,0,0,8.16,6.43Z" />
        <path class="cls-3"
            d="M42.31,3a1.61,1.61,0,0,1,1.5.85A11.24,11.24,0,0,1,33.45,20.41,11.24,11.24,0,0,1,42.31,3Z" />
        <path class="cls-4"
            d="M40,6.43a3.39,3.39,0,0,1,5.15,2.94,11.18,11.18,0,0,1-9.69,10.92A11.2,11.2,0,0,1,40,6.43Z" />
        <path class="cls-5"
            d="M44.61,24.19C40.67,18.72,32.93,15,24,15S7.33,18.72,3.39,24.19a1.69,1.69,0,0,0,0,2,29.53,29.53,0,0,0,10.2,9.1,6.58,6.58,0,0,1,2.1,1.83,17,17,0,0,0,6,4.71,6,6,0,0,0,4.67,0,17,17,0,0,0,6-4.71,6.58,6.58,0,0,1,2.1-1.83,29.53,29.53,0,0,0,10.2-9.1A1.69,1.69,0,0,0,44.61,24.19Z" />
        <path class="cls-6"
            d="M44.61,24.19C40.67,18.72,32.93,21,24,21S7.33,18.72,3.39,24.19a1.69,1.69,0,0,0,0,2,29.53,29.53,0,0,0,10.2,9.1,6.58,6.58,0,0,1,2.1,1.83,17,17,0,0,0,6,4.71,6,6,0,0,0,4.67,0,17,17,0,0,0,6-4.71,6.58,6.58,0,0,1,2.1-1.83,29.53,29.53,0,0,0,10.2-9.1A1.69,1.69,0,0,0,44.61,24.19Z" />
        <path class="cls-7"
            d="M3.54,24l-.15.2a1.69,1.69,0,0,0,0,2,29.53,29.53,0,0,0,10.2,9.1,6.58,6.58,0,0,1,2.1,1.83,17,17,0,0,0,6,4.71,4.25,4.25,0,0,0,.84.29C21.27,23.27,8.87,23.91,3.54,24Z" />
        <ellipse class="cls-8" cx="15.53" cy="31.42" rx="2.53" ry="2.92" />
        <path class="cls-9"
            d="M44.65,26.14a1.69,1.69,0,0,0,0-2l-.15-.2c-5.33-.09-17.73-.73-19,18.08a4.25,4.25,0,0,0,.84-.29,17,17,0,0,0,6-4.71,6.58,6.58,0,0,1,2.1-1.83A29.52,29.52,0,0,0,44.65,26.14Z" />
        <ellipse class="cls-10" cx="32.47" cy="31.42" rx="2.53" ry="2.92" />
        <circle class="cls-11" cx="16.62" cy="31.5" r="1.44" />
        <path class="cls-12" d="M16.62,30.06a1.44,1.44,0,0,0-1.44,1.44h1.44Z" />
        <circle class="cls-13" cx="31.38" cy="31.5" r="1.44" />
        <path class="cls-14" d="M31.38,30.06a1.44,1.44,0,0,0-1.44,1.44h1.44Z" />
        <path class="cls-15"
            d="M24,39a4.94,4.94,0,0,0-4.11,1.79q.85.52,1.78,1a6,6,0,0,0,4.67,0q.93-.46,1.78-1A4.94,4.94,0,0,0,24,39Z" />
        <path class="cls-16"
            d="M20.78,41.29c.29.16.57.34.88.49a6,6,0,0,0,4.67,0c.31-.15.59-.33.88-.49a6.1,6.1,0,0,0-6.44,0Z" />
    </g>
</svg>