<svg xmlns="http://www.w3.org/2000/svg" xmlns:xlink="http://www.w3.org/1999/xlink" viewBox="0 0 48 48">
    <defs>
        <style>
            .cls-1 {
                fill: url(#linear-gradient);
            }

            .cls-2 {
                fill: url(#linear-gradient-2);
            }

            .cls-3 {
                fill: url(#linear-gradient-3);
            }

            .cls-4 {
                fill: url(#linear-gradient-4);
            }

            .cls-5 {
                fill: url(#linear-gradient-5);
            }

            .cls-6 {
                fill: url(#linear-gradient-6);
            }

            .cls-7 {
                fill: url(#linear-gradient-7);
            }

            .cls-8 {
                fill: url(#linear-gradient-8);
            }

            .cls-9 {
                fill: url(#linear-gradient-9);
            }

            .cls-10 {
                fill: url(#linear-gradient-10);
            }

            .cls-11 {
                fill: url(#linear-gradient-11);
            }

            .cls-12 {
                fill: url(#linear-gradient-12);
            }

            .cls-13 {
                fill: url(#linear-gradient-13);
            }

            .cls-14 {
                fill: url(#linear-gradient-14);
            }

            .cls-15 {
                fill: url(#linear-gradient-15);
            }

            .cls-16 {
                fill: url(#linear-gradient-16);
            }

            .cls-17 {
                fill: url(#linear-gradient-17);
            }

            .cls-18 {
                fill: url(#linear-gradient-18);
            }

            .cls-19 {
                fill: url(#linear-gradient-19);
            }

            .cls-20 {
                fill: url(#linear-gradient-20);
            }

            .cls-21 {
                fill: url(#linear-gradient-21);
            }

            .cls-22 {
                fill: url(#linear-gradient-22);
            }

            .cls-23 {
                fill: url(#linear-gradient-23);
            }

            .cls-24 {
                fill: url(#linear-gradient-24);
            }

            .cls-25 {
                fill: url(#linear-gradient-25);
            }
        </style>
        <linearGradient id="linear-gradient" x1="10.72" y1="33.92" x2="10.72" y2="4.8" gradientUnits="userSpaceOnUse">
            <stop offset="0" stop-color="#27e9de" />
            <stop offset="0.52" stop-color="#03a4ec" />
            <stop offset="1" stop-color="#2547a8" />
        </linearGradient>
        <linearGradient id="linear-gradient-2" x1="10.36" y1="26.58" x2="10.36" y2="7.55"
            xlink:href="#linear-gradient" />
        <linearGradient id="linear-gradient-3" x1="368.75" y1="33.92" x2="368.75" y2="4.8"
            gradientTransform="matrix(-1, 0, 0, 1, 406, 0)" xlink:href="#linear-gradient" />
        <linearGradient id="linear-gradient-4" x1="368.38" y1="26.58" x2="368.38" y2="7.55"
            gradientTransform="matrix(-1, 0, 0, 1, 406, 0)" xlink:href="#linear-gradient" />
        <linearGradient id="linear-gradient-5" x1="24" y1="51.37" x2="24" y2="34.85" xlink:href="#linear-gradient" />
        <linearGradient id="linear-gradient-6" x1="24" y1="49.88" x2="24" y2="38.6" xlink:href="#linear-gradient" />
        <linearGradient id="linear-gradient-7" x1="18.53" y1="32.58" x2="18.53" y2="52.45"
            gradientUnits="userSpaceOnUse">
            <stop offset="0" stop-color="#fff" />
            <stop offset="0.52" stop-color="#cce2e6" />
            <stop offset="1" stop-color="#8fa1bb" />
        </linearGradient>
        <linearGradient id="linear-gradient-8" x1="18.53" y1="49" x2="18.53" y2="40.83"
            xlink:href="#linear-gradient-7" />
        <linearGradient id="linear-gradient-9" x1="350.87" y1="32.58" x2="350.87" y2="52.45"
            gradientTransform="matrix(-1, 0, 0, 1, 380.34, 0)" xlink:href="#linear-gradient-7" />
        <linearGradient id="linear-gradient-10" x1="29.47" y1="49" x2="29.47" y2="40.83"
            xlink:href="#linear-gradient-7" />
        <linearGradient id="linear-gradient-11" x1="24" y1="65" x2="24" y2="-4.65" xlink:href="#linear-gradient" />
        <linearGradient id="linear-gradient-12" x1="24" y1="62.18" x2="24" y2="0.09" xlink:href="#linear-gradient" />
        <linearGradient id="linear-gradient-13" x1="24" y1="73.5" x2="24" y2="1.27" xlink:href="#linear-gradient" />
        <linearGradient id="linear-gradient-14" x1="12.36" y1="51" x2="12.36" y2="15.3" xlink:href="#linear-gradient" />
        <linearGradient id="linear-gradient-15" x1="364.87" y1="51" x2="364.87" y2="15.3"
            gradientTransform="matrix(-1, 0, 0, 1, 400.51, 0)" xlink:href="#linear-gradient" />
        <linearGradient id="linear-gradient-16" x1="24" y1="66.67" x2="24" y2="3.99" xlink:href="#linear-gradient" />
        <linearGradient id="linear-gradient-17" x1="24" y1="16.56" x2="24" y2="56.23" xlink:href="#linear-gradient" />
        <linearGradient id="linear-gradient-18" x1="15" y1="37.75" x2="15" y2="29.06" gradientUnits="userSpaceOnUse">
            <stop offset="0" stop-color="#273a9b" />
            <stop offset="0.56" stop-color="#202f65" />
            <stop offset="1" stop-color="#021e2f" />
        </linearGradient>
        <linearGradient id="linear-gradient-19" x1="14.25" y1="25.21" x2="14.25" y2="22.46"
            xlink:href="#linear-gradient-18" />
        <linearGradient id="linear-gradient-20" x1="33" y1="37.75" x2="33" y2="29.06"
            xlink:href="#linear-gradient-18" />
        <linearGradient id="linear-gradient-21" x1="32.25" y1="25.21" x2="32.25" y2="22.46"
            xlink:href="#linear-gradient-18" />
        <linearGradient id="linear-gradient-22" x1="20.18" y1="47" x2="20.18" y2="33.75"
            xlink:href="#linear-gradient" />
        <linearGradient id="linear-gradient-23" x1="20.18" y1="45.42" x2="20.18" y2="34.79"
            xlink:href="#linear-gradient" />
        <linearGradient id="linear-gradient-24" x1="357.04" y1="47" x2="357.04" y2="33.75"
            gradientTransform="matrix(-1, 0, 0, 1, 384.86, 0)" xlink:href="#linear-gradient" />
        <linearGradient id="linear-gradient-25" x1="357.04" y1="45.42" x2="357.04" y2="34.79"
            gradientTransform="matrix(-1, 0, 0, 1, 384.86, 0)" xlink:href="#linear-gradient" />
    </defs>
    <title>hippo, animal, wildlife, wild, africa</title>
    <g id="ART">
        <path class="cls-1"
            d="M10.1,3.1A6.45,6.45,0,0,0,8.92,3,2.9,2.9,0,0,0,6,5.7a6.49,6.49,0,0,0,5.32,6.94,6.42,6.42,0,0,0,3.45-.32,6.46,6.46,0,0,0,.54-4A6.55,6.55,0,0,0,10.1,3.1Z" />
        <path class="cls-2"
            d="M14.53,11.65A6.55,6.55,0,0,0,9.3,6.48a6.45,6.45,0,0,0-1.18-.1,3,3,0,0,0-2,1,.15.15,0,0,0,0,.14h0a6.27,6.27,0,0,0,3,4.38,6.54,6.54,0,0,0,5.45.53A6.52,6.52,0,0,0,14.53,11.65Z" />
        <path class="cls-3"
            d="M37.88,3.1A6.45,6.45,0,0,1,39.06,3,2.9,2.9,0,0,1,42,5.7a6.49,6.49,0,0,1-5.32,6.94,6.42,6.42,0,0,1-3.45-.32,6.46,6.46,0,0,1-.54-4A6.55,6.55,0,0,1,37.88,3.1Z" />
        <path class="cls-4"
            d="M33.45,11.65a6.55,6.55,0,0,1,5.23-5.17,6.45,6.45,0,0,1,1.18-.1,3,3,0,0,1,2,1,.15.15,0,0,1,0,.14h0a6.27,6.27,0,0,1-3,4.38,6.54,6.54,0,0,1-5.45.53A6.52,6.52,0,0,1,33.45,11.65Z" />
        <path class="cls-5"
            d="M32.25,39.19C32.25,41.78,28.56,45,24,45s-8.25-3.22-8.25-5.81S19.44,34.5,24,34.5,32.25,36.6,32.25,39.19Z" />
        <path class="cls-6"
            d="M24,34.5c-4.56,0-8.25,2.1-8.25,4.69,0,1.44,1.14,3.07,2.94,4.24a8.69,8.69,0,0,0,3.38-.94,4.12,4.12,0,0,1,3.85,0,8.69,8.69,0,0,0,3.38.94c1.8-1.17,2.94-2.8,2.94-4.24C32.25,36.6,28.56,34.5,24,34.5Z" />
        <path class="cls-7"
            d="M21,39.47H16.06v4.31a1.11,1.11,0,0,0,.9,1.09,8.05,8.05,0,0,0,1.45.13,8,8,0,0,0,1.72-.19A1.12,1.12,0,0,0,21,43.72Z" />
        <path class="cls-8" d="M16.06,43.25a9,9,0,0,0,2,.22,8.8,8.8,0,0,0,3-.52V39.47H16.06Z" />
        <path class="cls-9"
            d="M27,39.47h4.94v4.31a1.11,1.11,0,0,1-.9,1.09,8.05,8.05,0,0,1-1.45.13,8,8,0,0,1-1.72-.19A1.12,1.12,0,0,1,27,43.72Z" />
        <path class="cls-10" d="M27,42.95a8.8,8.8,0,0,0,3,.52,9,9,0,0,0,2-.22V39.47H27Z" />
        <path class="cls-11" d="M45,27c0,9.11-9.4,12-21,12S3,36.12,3,27,12.4,6,24,6,45,17.89,45,27Z" />
        <path class="cls-12" d="M45,27c0,9.11-9.4,12-21,12S3,36.12,3,27,12.4,9.58,24,9.58,45,17.89,45,27Z" />
        <path class="cls-13" d="M45,27c0,9.11-10.15,3.06-21.75,3.06S3,36.12,3,27,12.4,9.58,24,9.58,45,17.89,45,27Z" />
        <path class="cls-14"
            d="M16.5,24c0,2.07-4.18,3.75-5.64,3.75S8.22,26.07,8.22,24s1.18-3.75,2.64-3.75S16.5,21.93,16.5,24Z" />
        <path class="cls-15"
            d="M31.5,24c0,2.07,4.18,3.75,5.64,3.75s2.64-1.68,2.64-3.75-1.18-3.75-2.64-3.75S31.5,21.93,31.5,24Z" />
        <path class="cls-16"
            d="M30,27.06a8.92,8.92,0,0,0-1.72.17,22.19,22.19,0,0,1-8.52,0A8.92,8.92,0,0,0,18,27.06c-4.54,0-8.22,3.34-8.22,7.47S13.48,42,18,42a8.73,8.73,0,0,0,4.05-1,4.12,4.12,0,0,1,3.85,0A8.73,8.73,0,0,0,30,42c4.54,0,8.22-3.34,8.22-7.47S34.52,27.06,30,27.06Z" />
        <path class="cls-17"
            d="M18,29.5a8.92,8.92,0,0,1,1.72.17,22.19,22.19,0,0,0,8.52,0A8.92,8.92,0,0,1,30,29.5a8,8,0,0,1,8.1,6.25,6.82,6.82,0,0,0,.12-1.22c0-4.12-3.68-7.47-8.22-7.47a8.92,8.92,0,0,0-1.72.17,22.19,22.19,0,0,1-8.52,0A8.92,8.92,0,0,0,18,27.06c-4.54,0-8.22,3.34-8.22,7.47a6.82,6.82,0,0,0,.12,1.22A8,8,0,0,1,18,29.5Z" />
        <circle class="cls-18" cx="15" cy="24" r="1.5" />
        <path class="cls-19" d="M15,22.5A1.5,1.5,0,0,0,13.5,24H15Z" />
        <circle class="cls-20" cx="33" cy="24" r="1.5" />
        <path class="cls-21" d="M33,22.5A1.5,1.5,0,0,0,31.5,24H33Z" />
        <path class="cls-22"
            d="M20.13,33.27a1.25,1.25,0,0,0-1.66,1.66,3.18,3.18,0,0,0,.65.94,3.09,3.09,0,0,0,2.23.92.65.65,0,0,0,.64-.64,3.09,3.09,0,0,0-.92-2.23A3.18,3.18,0,0,0,20.13,33.27Z" />
        <path class="cls-23"
            d="M18.57,35.09a1.24,1.24,0,0,1,1.56-.48,3.18,3.18,0,0,1,.94.65,3.13,3.13,0,0,1,.77,1.28.64.64,0,0,0,.15-.4,3.09,3.09,0,0,0-.92-2.23,3.18,3.18,0,0,0-.94-.65,1.25,1.25,0,0,0-1.66,1.66C18.5,35,18.54,35,18.57,35.09Z" />
        <path class="cls-24"
            d="M27.87,33.27a1.25,1.25,0,0,1,1.66,1.66,3.18,3.18,0,0,1-.65.94,3.09,3.09,0,0,1-2.23.92.65.65,0,0,1-.64-.64,3.09,3.09,0,0,1,.92-2.23A3.18,3.18,0,0,1,27.87,33.27Z" />
        <path class="cls-25"
            d="M29.43,35.09a1.24,1.24,0,0,0-1.56-.48,3.18,3.18,0,0,0-.94.65,3.13,3.13,0,0,0-.77,1.28.64.64,0,0,1-.15-.4,3.09,3.09,0,0,1,.92-2.23,3.18,3.18,0,0,1,.94-.65,1.25,1.25,0,0,1,1.66,1.66C29.5,35,29.46,35,29.43,35.09Z" />
    </g>
</svg>