<svg xmlns="http://www.w3.org/2000/svg" xmlns:xlink="http://www.w3.org/1999/xlink" viewBox="0 0 48 48">
    <defs>
        <style>
            .cls-1 {
                fill: url(#linear-gradient);
            }

            .cls-2 {
                fill: url(#linear-gradient-2);
            }

            .cls-3 {
                fill: url(#linear-gradient-3);
            }

            .cls-4 {
                fill: url(#linear-gradient-4);
            }

            .cls-5 {
                fill: url(#linear-gradient-5);
            }

            .cls-6 {
                fill: url(#linear-gradient-6);
            }

            .cls-7 {
                fill: url(#linear-gradient-7);
            }

            .cls-8 {
                fill: url(#linear-gradient-8);
            }

            .cls-9 {
                fill: url(#linear-gradient-9);
            }

            .cls-10 {
                fill: url(#linear-gradient-10);
            }

            .cls-11 {
                fill: url(#linear-gradient-11);
            }

            .cls-12 {
                fill: url(#linear-gradient-12);
            }

            .cls-13 {
                fill: url(#linear-gradient-13);
            }

            .cls-14 {
                fill: url(#linear-gradient-14);
            }

            .cls-15 {
                fill: url(#linear-gradient-15);
            }

            .cls-16 {
                fill: url(#linear-gradient-16);
            }

            .cls-17 {
                fill: url(#linear-gradient-17);
            }

            .cls-18 {
                fill: url(#linear-gradient-18);
            }

            .cls-19 {
                fill: url(#linear-gradient-19);
            }

            .cls-20 {
                fill: url(#linear-gradient-20);
            }

            .cls-21 {
                fill: url(#linear-gradient-21);
            }

            .cls-22 {
                fill: url(#linear-gradient-22);
            }

            .cls-23 {
                fill: url(#linear-gradient-23);
            }

            .cls-24 {
                fill: url(#linear-gradient-24);
            }

            .cls-25 {
                fill: url(#linear-gradient-25);
            }

            .cls-26 {
                fill: url(#linear-gradient-26);
            }

            .cls-27 {
                fill: url(#linear-gradient-27);
            }

            .cls-28 {
                fill: url(#linear-gradient-28);
            }

            .cls-29 {
                fill: url(#linear-gradient-29);
            }

            .cls-30 {
                fill: url(#linear-gradient-30);
            }

            .cls-31 {
                fill: url(#linear-gradient-31);
            }
        </style>
        <linearGradient id="linear-gradient" x1="11.25" y1="-25.75" x2="11.25" y2="12.76"
            gradientUnits="userSpaceOnUse">
            <stop offset="0" stop-color="#f3c57a" />
            <stop offset="0.52" stop-color="#f39369" />
            <stop offset="1" stop-color="#e94867" />
        </linearGradient>
        <linearGradient id="linear-gradient-2" x1="9.59" y1="36.25" x2="9.59" y2="6.62" xlink:href="#linear-gradient" />
        <linearGradient id="linear-gradient-3" x1="371.75" x2="371.75" y2="12.76"
            gradientTransform="matrix(-1, 0, 0, 1, 408.5, 0)" xlink:href="#linear-gradient" />
        <linearGradient id="linear-gradient-4" x1="370.09" y1="36.25" x2="370.09" y2="6.62"
            gradientTransform="matrix(-1, 0, 0, 1, 408.5, 0)" xlink:href="#linear-gradient" />
        <linearGradient id="linear-gradient-5" x1="24" y1="48.63" x2="24" y2="-14.15" gradientUnits="userSpaceOnUse">
             <stop offset="0" stop-color="#efda80" />
            <stop offset="0.52" stop-color="#f3c57a" />
            <stop offset="1" stop-color="#f39369" />
        </linearGradient>
        <linearGradient id="linear-gradient-6" x1="24" y1="56.08" x2="24" y2="27.41" xlink:href="#linear-gradient-5" />
        <linearGradient id="linear-gradient-7" x1="24" y1="66.7" x2="24" y2="0.56" xlink:href="#linear-gradient-5" />
        <linearGradient id="linear-gradient-8" x1="15.36" y1="44.5" x2="15.36" y2="20.55"
            gradientTransform="translate(25.71 -2.08) rotate(45)" xlink:href="#linear-gradient-5" />
        <linearGradient id="linear-gradient-9" x1="358.64" y1="44.5" x2="358.64" y2="20.55"
            gradientTransform="matrix(-0.71, -0.71, -0.71, 0.71, 307.45, 262.38)" xlink:href="#linear-gradient-5" />
        <linearGradient id="linear-gradient-10" x1="24" y1="54.17" x2="24" y2="31.09" xlink:href="#linear-gradient-5" />
        <linearGradient id="linear-gradient-11" x1="24" y1="56.78" x2="24" y2="25.65" xlink:href="#linear-gradient-5" />
        <linearGradient id="linear-gradient-12" x1="15.36" y1="40" x2="15.36" y2="15.15"
            gradientTransform="translate(24.4 -2.62) rotate(45)" xlink:href="#linear-gradient" />
        <linearGradient id="linear-gradient-13" x1="358.64" y1="40" x2="358.64" y2="15.15"
            gradientTransform="matrix(-0.71, -0.71, -0.71, 0.71, 306.13, 261.84)" xlink:href="#linear-gradient" />
        <linearGradient id="linear-gradient-14" x1="15.4" y1="42.69" x2="15.4" y2="21.06"
            xlink:href="#linear-gradient" />
        <linearGradient id="linear-gradient-15" x1="32.6" y1="42.69" x2="32.6" y2="21.06"
            xlink:href="#linear-gradient" />
        <linearGradient id="linear-gradient-16" x1="15" y1="42.25" x2="15" y2="33.56" gradientUnits="userSpaceOnUse">
            <stop offset="0" stop-color="#273a9b" />
            <stop offset="0.56" stop-color="#202f65" />
            <stop offset="1" stop-color="#021e2f" />
        </linearGradient>
        <linearGradient id="linear-gradient-17" x1="14.25" y1="29.71" x2="14.25" y2="26.96"
            xlink:href="#linear-gradient-16" />
        <linearGradient id="linear-gradient-18" x1="33" y1="42.25" x2="33" y2="33.56"
            xlink:href="#linear-gradient-16" />
        <linearGradient id="linear-gradient-19" x1="32.25" y1="29.71" x2="32.25" y2="26.96"
            xlink:href="#linear-gradient-16" />
        <linearGradient id="linear-gradient-20" x1="24" y1="49.09" x2="24" y2="36.78" gradientUnits="userSpaceOnUse">
            <stop offset="0" stop-color="#f3c57a" />
            <stop offset="0.49" stop-color="#f39369" />
            <stop offset="1" stop-color="#e94867" />
        </linearGradient>
        <linearGradient id="linear-gradient-21" x1="24" y1="41.75" x2="24" y2="38.48"
            xlink:href="#linear-gradient-20" />
        <linearGradient id="linear-gradient-22" x1="24" y1="46.31" x2="24" y2="35.54"
            xlink:href="#linear-gradient-20" />
        <linearGradient id="linear-gradient-23" x1="14.93" y1="39.92" x2="14.93" y2="19.14"
            xlink:href="#linear-gradient" />
        <linearGradient id="linear-gradient-24" x1="33.07" y1="39.92" x2="33.07" y2="19.14"
            xlink:href="#linear-gradient" />
        <linearGradient id="linear-gradient-25" x1="24" y1="33.47" x2="24" y2="18.78" xlink:href="#linear-gradient-5" />
        <linearGradient id="linear-gradient-26" x1="24" y1="39.37" x2="24" y2="33.59" xlink:href="#linear-gradient-5" />
        <linearGradient id="linear-gradient-27" x1="24" y1="50.67" x2="24" y2="28.24" xlink:href="#linear-gradient-5" />
        <linearGradient id="linear-gradient-28" x1="24" y1="23.94" x2="24" y2="41.2" xlink:href="#linear-gradient-5" />
        <linearGradient id="linear-gradient-29" x1="24" y1="41.71" x2="24" y2="33.43" xlink:href="#linear-gradient-5" />
        <linearGradient id="linear-gradient-30" x1="24" y1="41.19" x2="24" y2="28.21"
            xlink:href="#linear-gradient-16" />
        <linearGradient id="linear-gradient-31" x1="24" y1="43.38" x2="24" y2="30.59"
            xlink:href="#linear-gradient-16" />
    </defs>
    <title>panda, animal, wildlife, wild</title>
    <g id="ART">
        <circle class="cls-1" cx="11.25" cy="9.75" r="6.75" />
        <path class="cls-2"
            d="M9.3,6.53l-.08,0A3.94,3.94,0,0,0,4.63,11.1l0,.08A6.74,6.74,0,0,0,14,15.9,6.74,6.74,0,0,0,9.3,6.53Z" />
        <circle class="cls-3" cx="36.75" cy="9.75" r="6.75" />
        <path class="cls-4"
            d="M38.7,6.53l.08,0a3.94,3.94,0,0,1,4.59,4.59l0,.08A6.74,6.74,0,0,1,34,15.9,6.74,6.74,0,0,1,38.7,6.53Z" />
        <path class="cls-5"
            d="M43.22,23.89a19.88,19.88,0,0,1-2.15-4.55C38.69,11.59,32,6,24,6S9.31,11.59,6.93,19.34a19.88,19.88,0,0,1-2.15,4.55,11.46,11.46,0,0,0-1.78,6C3,38.26,12.4,45,24,45h0c11.6,0,21-6.74,21-15.06A11.46,11.46,0,0,0,43.22,23.89Z" />
        <path class="cls-6"
            d="M41.13,24C38.81,16.19,32,15.42,24,15.42s-14.82.78-17.14,8.64a18,18,0,0,1-2.07,4.31l0,.06a7.23,7.23,0,0,0-.06,7.41C7.89,41.22,15.32,45,24,45h0c8.68,0,16.11-3.78,19.3-9.17a7.23,7.23,0,0,0-.06-7.41l0-.06A18,18,0,0,1,41.13,24Z" />
        <path class="cls-7"
            d="M41.13,24c-2.32-7.86-9.11-12-17.13-12s-14.82,4.11-17.14,12a18,18,0,0,1-2.07,4.31l0,.06a7.23,7.23,0,0,0-.06,7.41C7.89,41.22,15.32,41,24,41h0c8.68,0,16.11.22,19.3-5.16a7.23,7.23,0,0,0-.06-7.41l0-.06A18,18,0,0,1,41.13,24Z" />
        <ellipse class="cls-8" cx="15.36" cy="30" rx="6" ry="5.25" transform="translate(-16.71 19.65) rotate(-45)" />
        <ellipse class="cls-9" cx="32.64" cy="30" rx="5.25" ry="6" transform="translate(-11.65 31.87) rotate(-45)" />
        <path class="cls-10" d="M27.3,33.2H20.7V44.81A29.28,29.28,0,0,0,24,45h0a29.26,29.26,0,0,0,3.3-.19Z" />
        <path class="cls-11" d="M27.3,33.2H20.7V41H27.3Z" />
        <ellipse class="cls-12" cx="15.36" cy="28.14" rx="6" ry="5.25" transform="translate(-15.4 19.1) rotate(-45)" />
        <ellipse class="cls-13" cx="32.64" cy="28.14" rx="5.25" ry="6"
            transform="translate(-10.34 31.32) rotate(-45)" />
        <path class="cls-14"
            d="M11.65,27a6.7,6.7,0,0,0-.92,1.15,3.46,3.46,0,0,0,.37,4.25l0,0c2.05,2.05,5.61,1.81,8-.53a6.66,6.66,0,0,0,1.21-1.66,3.25,3.25,0,0,0-.67-3.74l0,0C17.55,24.38,14,24.62,11.65,27Z" />
        <path class="cls-15"
            d="M28.39,26.43l0,0a3.25,3.25,0,0,0-.67,3.74,6.66,6.66,0,0,0,1.21,1.66c2.34,2.34,5.9,2.58,8,.53l0,0a3.46,3.46,0,0,0,.37-4.25A6.7,6.7,0,0,0,36.35,27C34,24.62,30.45,24.38,28.39,26.43Z" />
        <circle class="cls-16" cx="15" cy="28.5" r="1.5" />
        <path class="cls-17" d="M15,27a1.5,1.5,0,0,0-1.5,1.5H15Z" />
        <circle class="cls-18" cx="33" cy="28.5" r="1.5" />
        <path class="cls-19" d="M33,27a1.5,1.5,0,0,0-1.5,1.5H33Z" />
        <path class="cls-20"
            d="M27.64,38.6c0,1.19-1.63,2.15-3.64,2.15s-3.64-1-3.64-2.15S22,37.7,24,37.7,27.64,37.41,27.64,38.6Z" />
        <path class="cls-21"
            d="M24,38.3c1.82,0,3.32-.22,3.58.62a1.3,1.3,0,0,0,.06-.32c0-1.19-1.63-.9-3.64-.9s-3.64-.28-3.64.9a1.3,1.3,0,0,0,.06.32C20.68,38.08,22.18,38.3,24,38.3Z" />
        <path class="cls-22" d="M21.54,40.18a5.55,5.55,0,0,0,4.91,0,5.55,5.55,0,0,0-4.91,0Z" />
        <path class="cls-23" d="M14.93,30c-1.27,0-2.3.43-2.3,1s1,.34,2.3.34,2.3.19,2.3-.34S16.2,30,14.93,30Z" />
        <path class="cls-24" d="M33.07,30c-1.27,0-2.3.43-2.3,1s1,.34,2.3.34,2.3.19,2.3-.34S34.34,30,33.07,30Z" />
        <path class="cls-25" d="M24,37.7l-1.54,0a1.59,1.59,0,0,0,3.08,0Z" />
        <path class="cls-26" d="M24,38.3l1.21,0a1.58,1.58,0,0,0,.33-.61L24,37.7l-1.54,0a1.58,1.58,0,0,0,.33.61Z" />
        <path class="cls-27"
            d="M26.54,32.83a5.55,5.55,0,0,0-2.54.58,5.55,5.55,0,0,0-2.54-.58c-2.17,0-3.92,1.07-3.92,2.38S18.87,38,21,38a5.25,5.25,0,0,0,1.06-.11,9.29,9.29,0,0,1,3.79,0A5.25,5.25,0,0,0,27,38c2.17,0,3.5-1.45,3.5-2.77S28.7,32.83,26.54,32.83Z" />
        <path class="cls-28"
            d="M21.46,34.06a5.55,5.55,0,0,1,2.54.58,5.55,5.55,0,0,1,2.54-.58c1.85,0,3.38.78,3.8,1.82a2.15,2.15,0,0,0,.12-.66c0-1.32-1.76-2.38-3.92-2.38a5.55,5.55,0,0,0-2.54.58,5.55,5.55,0,0,0-2.54-.58c-2.17,0-3.92,1.07-3.92,2.38a2.15,2.15,0,0,0,.12.66C18.08,34.83,19.62,34.06,21.46,34.06Z" />
        <path class="cls-29"
            d="M27.3,33.2c0,.94-1.39,3.84-3.21,3.84s-3.38-2.9-3.38-3.84,1.48-1.7,3.3-1.7S27.3,32.26,27.3,33.2Z" />
        <path class="cls-30"
            d="M27.3,33.2A3.63,3.63,0,0,1,24,36a3.63,3.63,0,0,1-3.3-2.84c0-.94,1.48-1.7,3.3-1.7S27.3,32.26,27.3,33.2Z" />
        <path class="cls-31"
            d="M22.31,33.24a1.14,1.14,0,0,0-.38,2,3,3,0,0,0,4.14,0,1.14,1.14,0,0,0-.38-2,6.06,6.06,0,0,0-3.38,0Z" />
    </g>
</svg>