<svg t="1633105935134" class="icon" viewBox="0 0 1024 1024" version="1.1" xmlns="http://www.w3.org/2000/svg" p-id="913" width="32" height="32"><path d="M318.747601 170.978093c18.10331 0 32.772404-14.669094 32.772404-32.772404 0-1.803066 1.834788-3.648087 3.637854-3.648087l310.728974 0c3.317559 0 5.824659 2.00568 5.984295 2.859118 3.478218 17.762549 20.653389 29.358655 38.458917 25.870204 17.762549-3.478218 29.348422-20.696368 25.870204-38.458917-6.326079-32.345686-35.898605-55.815213-70.313416-55.815213L355.157859 69.012793c-38.148855 0-69.182662 31.04404-69.182662 69.192895C285.975197 156.310022 300.644291 170.978093 318.747601 170.978093z" fill="#4F4F4F" p-id="914"></path><path d="M934.540526 780.190135 664.671145 369.970216 664.671145 230.377948c0-18.10331-14.669094-32.772404-32.772404-32.772404s-32.772404 14.669094-32.772404 32.772404l0 149.075247c0 6.40078 2.058892 13.271258 5.579065 18.615986l274.735202 417.60205c13.623275 21.61325 17.815761 41.658795 11.222599 53.618175-6.581905 11.916401-25.720801 19.031449-51.206242 19.031449L184.009897 888.320854c-25.475208 0-44.614104-7.116071-51.196009-19.031449-6.593162-11.95938-2.400676-32.003901 10.870582-53.084009l275.225365-418.337807c3.435239-5.301749 5.429663-12.097526 5.429663-18.413372L424.339498 229.236961c0-18.10331-14.669094-32.772404-32.772404-32.772404s-32.772404 14.669094-32.772404 32.772404l0 140.754744L88.583524 780.723278c-27.331485 43.375903-32.003901 86.070284-13.153578 120.229269 18.828834 34.127262 57.383942 52.91414 108.579951 52.91414l655.447063 0c51.196009 0 89.76135-18.786878 108.590184-52.91414C966.897468 866.793562 962.225051 824.088948 934.540526 780.190135z" fill="#4F4F4F" p-id="915"></path><path d="M351.161848 590.308507l0 31.950689c0 18.10331 14.669094 32.772404 32.772404 32.772404s32.772404-14.669094 32.772404-32.772404l0-31.950689c0-18.10331-14.669094-32.772404-32.772404-32.772404S351.161848 572.205197 351.161848 590.308507z" fill="#4F4F4F" p-id="916"></path><path d="M672.29273 622.259196l0-31.950689c0-18.10331-14.669094-32.772404-32.772404-32.772404s-32.772404 14.669094-32.772404 32.772404l0 31.950689c0 18.10331 14.668071 32.772404 32.772404 32.772404S672.29273 640.36353 672.29273 622.259196z" fill="#4F4F4F" p-id="917"></path><path d="M545.69031 708.073654c-0.13917 0.192382-13.697977 19.853164-34.276664 19.853164-19.981077 0-32.483832-18.157545-33.348526-19.447934-9.622148-15.137769-29.689183-19.735483-44.934398-10.231015-15.373129 9.547447-20.098757 29.753651-10.540054 45.125757 11.553127 18.60473 43.269479 50.096978 88.821955 50.096978 45.318138 0 77.428464-31.246655 89.248673-49.713238 9.676383-15.106046 5.28026-34.980699-9.686616-44.848441C575.977104 689.020716 555.728944 693.244924 545.69031 708.073654z" fill="#4F4F4F" p-id="918"></path></svg>
