<svg t="1633105993453" class="icon" viewBox="0 0 1024 1024" version="1.1" xmlns="http://www.w3.org/2000/svg" p-id="1358" width="32" height="32"><path d="M795.333532 862.396415 226.601436 862.396415c-18.137079 0-32.812313 14.675234-32.812313 32.81129s14.676257 32.812313 32.812313 32.812313l568.731072 0c18.137079 0 32.833803-14.676257 32.833803-32.812313S813.469588 862.396415 795.333532 862.396415zM874.630552 596.540442c47.382147-137.102564 11.748578-273.822412-79.596849-305.375036-29.779234-10.275018-61.780065-8.139378-93.054349 4.187369l17.004279 62.292742c18.820648-8.395204 37.554314-10.317996 54.709019-4.40124 57.101509 19.718087 74.553996 119.030977 38.986943 221.848691-26.803459 77.435627-76.024487 134.771473-123.085316 149.941987 32.240285-48.332798 51.051723-106.353237 51.051723-168.890548 0-130.460284-81.712023-241.568824-196.674335-285.645692l59.827597-59.827597c8.523117-8.54563 8.523117-22.387893 0-30.933523l-77.353762-77.352739c-8.54563-8.54563-22.408359-8.54563-30.953989 0l-77.331249 77.352739c-8.54563 8.54563-8.54563 22.387893 0 30.933523L477.963301 270.493597C363.009176 314.566372 281.289989 425.679006 281.289989 556.145429c0 60.322877 17.512862 116.440989 47.692209 163.718759-45.995567-13.763468-94.555539-70.955028-120.772644-148.658761-34.243919-101.449553-17.453511-199.438285 37.511335-218.879056 16.491603-5.831822 34.522258-3.930519 52.658314 4.315282l16.343223-61.438281c-30.079062-12.154831-60.882626-14.270005-89.551572-4.14439-87.906096 31.147394-122.192993 166.028361-76.584236 301.296137 23.717168 70.342068 64.381309 126.921691 110.312408 160.666236l-32.29759 0c-18.137079 0-32.812313 14.676257-32.812313 32.812313s14.676257 32.812313 32.812313 32.812313l568.731072 0c18.137079 0 32.833803-14.676257 32.833803-32.812313s-14.696724-32.812313-32.833803-32.812313l-26.832112 0C812.716434 718.29239 851.45369 663.58644 874.630552 596.540442zM572.471768 753.020332 449.458083 753.020332c-61.987796-43.481304-102.542444-115.380844-102.542444-196.875926 0-106.10662 68.744687-195.956997 164.042123-227.979318 95.317902 32.022321 164.085102 121.872698 164.085102 227.979318C675.041842 637.639488 634.473891 709.539029 572.471768 753.020332z" fill="#4F4F4F" p-id="1359"></path></svg>
