<svg xmlns="http://www.w3.org/2000/svg" xmlns:xlink="http://www.w3.org/1999/xlink" viewBox="0 0 48 48">
    <defs>
        <style>
            .cls-1 {
                fill: url(#linear-gradient);
            }

            .cls-2 {
                fill: url(#linear-gradient-2);
            }

            .cls-3 {
                fill: url(#linear-gradient-3);
            }

            .cls-4 {
                fill: url(#linear-gradient-4);
            }

            .cls-5 {
                fill: url(#linear-gradient-5);
            }

            .cls-6 {
                fill: url(#linear-gradient-6);
            }

            .cls-7 {
                fill: url(#linear-gradient-7);
            }

            .cls-8 {
                fill: url(#linear-gradient-8);
            }

            .cls-9 {
                fill: url(#linear-gradient-9);
            }

            .cls-10 {
                fill: url(#linear-gradient-10);
            }

            .cls-11 {
                fill: url(#linear-gradient-11);
            }

            .cls-12 {
                fill: url(#linear-gradient-12);
            }

            .cls-13 {
                fill: url(#linear-gradient-13);
            }

            .cls-14 {
                fill: url(#linear-gradient-14);
            }

            .cls-15 {
                fill: url(#linear-gradient-15);
            }
        </style>
        <linearGradient id="linear-gradient" x1="24" y1="17.43" x2="24" y2="-20.77" gradientUnits="userSpaceOnUse">
            <stop offset="0" stop-color="#27e9de" />
            <stop offset="0.49" stop-color="#03a4ec" />
            <stop offset="1" stop-color="#2547a8" />
        </linearGradient>
        <linearGradient id="linear-gradient-2" x1="24" y1="47.8" x2="24" y2="-41.39" xlink:href="#linear-gradient" />
        <linearGradient id="linear-gradient-3" x1="24" y1="42.34" x2="24" y2="23.3" xlink:href="#linear-gradient" />
        <linearGradient id="linear-gradient-4" x1="12.69" y1="47.18" x2="12.69" y2="-12.17"
            xlink:href="#linear-gradient" />
        <linearGradient id="linear-gradient-5" x1="1329.25" y1="47.18" x2="1329.25" y2="-12.17"
            gradientTransform="matrix(-1, 0, 0, 1, 1364, 0)" xlink:href="#linear-gradient" />
        <linearGradient id="linear-gradient-6" x1="14.72" y1="42.53" x2="14.72" y2="33.85"
            gradientUnits="userSpaceOnUse">
            <stop offset="0" stop-color="#273a9b" />
            <stop offset="0.56" stop-color="#202f65" />
            <stop offset="1" stop-color="#021e2f" />
        </linearGradient>
        <linearGradient id="linear-gradient-7" x1="13.97" y1="29.99" x2="13.97" y2="27.24"
            xlink:href="#linear-gradient-6" />
        <linearGradient id="linear-gradient-8" x1="32.72" y1="42.53" x2="32.72" y2="33.85"
            xlink:href="#linear-gradient-6" />
        <linearGradient id="linear-gradient-9" x1="31.97" y1="29.99" x2="31.97" y2="27.24"
            xlink:href="#linear-gradient-6" />
        <linearGradient id="linear-gradient-10" x1="13.59" y1="33.55" x2="13.59" y2="5.87"
            xlink:href="#linear-gradient" />
        <linearGradient id="linear-gradient-11" x1="34.22" y1="33.55" x2="34.22" y2="5.87"
            xlink:href="#linear-gradient" />
        <linearGradient id="linear-gradient-12" x1="24" y1="50.26" x2="24" y2="30.23" xlink:href="#linear-gradient" />
        <linearGradient id="linear-gradient-13" x1="24" y1="17.35" x2="24" y2="42.99" xlink:href="#linear-gradient" />
        <linearGradient id="linear-gradient-14" x1="24" y1="-7.17" x2="24" y2="11.75" xlink:href="#linear-gradient" />
        <linearGradient id="linear-gradient-15" x1="24" y1="28.81" x2="24" y2="12.33" xlink:href="#linear-gradient" />
    </defs>
    <title>chicken, animal, wildlife, wild, farm</title>
    <g id="ART">
        <path class="cls-1"
            d="M45,30.75a10.51,10.51,0,0,0-2-6,25.57,25.57,0,0,1-2.89-5.11C37.17,12.17,31.08,6,24,6S11.1,12,8.1,19.21a22.42,22.42,0,0,1-2.78,5A10.66,10.66,0,0,0,3,30.75c0,7.44,8.41,13.54,19.13,14.18.62,0,1.26.07,1.9.07s1.3,0,1.93-.07C36.64,44.26,45,38.17,45,30.75Z" />
        <path class="cls-2"
            d="M45,30.75a10.51,10.51,0,0,0-2-6,25.57,25.57,0,0,1-2.89-5.11c-2.94-7.43-9-8.82-16.09-8.82S11.1,12,8.1,19.21a22.42,22.42,0,0,1-2.78,5A10.66,10.66,0,0,0,3,30.75c0,7.44,8.41,13.54,19.13,14.18.62,0,1.26.07,1.9.07s1.3,0,1.93-.07C36.64,44.26,45,38.17,45,30.75Z" />
        <path class="cls-3"
            d="M31.73,37c0,3.73-3.46,2.48-7.73,2.48S16.27,40.76,16.27,37s3.46-6.75,7.73-6.75S31.73,33.3,31.73,37Z" />
        <ellipse class="cls-4" cx="12.69" cy="29.23" rx="3.53" ry="5.14" />
        <ellipse class="cls-5" cx="34.75" cy="29.23" rx="3.53" ry="5.14" />
        <circle class="cls-6" cx="14.72" cy="28.78" r="1.5" />
        <path class="cls-7" d="M14.72,27.28a1.5,1.5,0,0,0-1.5,1.5h1.5Z" />
        <circle class="cls-8" cx="32.72" cy="28.78" r="1.5" />
        <path class="cls-9" d="M32.72,27.28a1.5,1.5,0,0,0-1.5,1.5h1.5Z" />
        <ellipse class="cls-10" cx="13.59" cy="31.07" rx="1.79" ry="0.92" />
        <ellipse class="cls-11" cx="34.22" cy="31.07" rx="1.79" ry="0.92" />
        <path class="cls-12"
            d="M24,29.64c-4.14,0-7.5,3.61-7.5,5.94,0,1.53,1.45,1.9,3.61,2a2.54,2.54,0,0,1,1.75.8,7.33,7.33,0,0,0,1.42,1.16,1.35,1.35,0,0,0,1.43,0,7.33,7.33,0,0,0,1.42-1.16,2.54,2.54,0,0,1,1.75-.8c2.17-.07,3.61-.44,3.61-2C31.5,33.25,28.14,29.64,24,29.64Z" />
        <path class="cls-13"
            d="M24,31.14a8.14,8.14,0,0,1,7.31,4.93,1.68,1.68,0,0,0,.19-.79c0-2.33-3.36-5.94-7.5-5.94s-7.5,3.61-7.5,5.94a1.68,1.68,0,0,0,.19.79A8.14,8.14,0,0,1,24,31.14Z" />
        <path class="cls-14"
            d="M29.92,7.5c0,5-2.65,13.58-5.92,13.58S18.08,12.49,18.08,7.5,20.73,3,24,3,29.92,2.51,29.92,7.5Z" />
        <path class="cls-15"
            d="M29.92,7.5c0-.07,0-.14,0-.21A13,13,0,0,0,24,5.82a13,13,0,0,0-5.94,1.5c0,.06,0,.12,0,.18,0,5,2.65,13.58,5.92,13.58S29.92,12.49,29.92,7.5Z" />
    </g>
</svg>