<svg xmlns="http://www.w3.org/2000/svg" xmlns:xlink="http://www.w3.org/1999/xlink" viewBox="0 0 48 48"><defs><style>.cls-1{fill:url(#linear-gradient);}.cls-2{fill:url(#linear-gradient-2);}.cls-3{fill:url(#linear-gradient-3);}.cls-4{fill:url(#linear-gradient-4);}.cls-5{fill:url(#linear-gradient-5);}.cls-6{fill:url(#linear-gradient-6);}.cls-7{fill:url(#linear-gradient-7);}.cls-8{fill:url(#linear-gradient-8);}.cls-9{fill:url(#linear-gradient-9);}.cls-10{fill:url(#linear-gradient-10);}.cls-11{fill:url(#linear-gradient-11);}.cls-12{fill:url(#linear-gradient-12);}.cls-13{fill:url(#linear-gradient-13);}.cls-14{fill:url(#linear-gradient-14);}</style><linearGradient id="linear-gradient" x1="24" y1="87.25" x2="24" y2="-21.54" gradientUnits="userSpaceOnUse"><stop offset="0" stop-color="#27e9de"/><stop offset="0.52" stop-color="#6458ED"/><stop offset="1" stop-color="#533EDD"/></linearGradient><linearGradient id="linear-gradient-2" x1="24" y1="57.04" x2="24" y2="1.86" xlink:href="#linear-gradient"/><linearGradient id="linear-gradient-3" x1="24" y1="2" x2="24" y2="80.26" gradientUnits="userSpaceOnUse"><stop offset="0" stop-color="#fff"/><stop offset="0.52" stop-color="#cce2e6"/><stop offset="1" stop-color="#8fa1bb"/></linearGradient><linearGradient id="linear-gradient-4" x1="24" y1="37.43" x2="24" y2="23.58" gradientUnits="userSpaceOnUse"><stop offset="0" stop-color="#f3c57a"/><stop offset="0.49" stop-color="#f39369"/><stop offset="1" stop-color="#e94867"/></linearGradient><linearGradient id="linear-gradient-5" x1="13.16" y1="50.71" x2="13.16" y2="-24.25" xlink:href="#linear-gradient-3"/><linearGradient id="linear-gradient-6" x1="34.84" y1="50.71" x2="34.84" y2="-24.25" xlink:href="#linear-gradient-3"/><linearGradient id="linear-gradient-7" x1="14.81" y1="36.25" x2="14.81" y2="27.56" gradientUnits="userSpaceOnUse"><stop offset="0" stop-color="#273a9b"/><stop offset="0.56" stop-color="#202f65"/><stop offset="1" stop-color="#021e2f"/></linearGradient><linearGradient id="linear-gradient-8" x1="14.06" y1="23.71" x2="14.06" y2="20.96" xlink:href="#linear-gradient-7"/><linearGradient id="linear-gradient-9" x1="32.81" y1="36.25" x2="32.81" y2="27.56" xlink:href="#linear-gradient-7"/><linearGradient id="linear-gradient-10" x1="32.06" y1="23.71" x2="32.06" y2="20.96" xlink:href="#linear-gradient-7"/><linearGradient id="linear-gradient-11" x1="13.69" y1="21.69" x2="13.69" y2="36.47" xlink:href="#linear-gradient-3"/><linearGradient id="linear-gradient-12" x1="34.31" y1="21.69" x2="34.31" y2="36.47" xlink:href="#linear-gradient-3"/><linearGradient id="linear-gradient-13" x1="24" y1="32.5" x2="24" y2="20.41" xlink:href="#linear-gradient-4"/><linearGradient id="linear-gradient-14" x1="24" y1="23.14" x2="24" y2="33.9" xlink:href="#linear-gradient-4"/></defs><title>peguin, animal, wildlife, wild, cold</title><g id="ART"><path class="cls-1" d="M45,28.54C45,40.13,35.6,45,24,45S3,40.13,3,28.54,12.4,3,24,3,45,16.94,45,28.54Z"/><path class="cls-2" d="M45,28.54C45,40.13,35.6,45,24,45S3,40.13,3,28.54s9.4-22,21-22S45,16.94,45,28.54Z"/><path class="cls-3" d="M34.75,15c-3.52,0-6.49,5.29-7.43,12.53a13.45,13.45,0,0,0-6.63,0C19.74,20.29,16.77,15,13.25,15,9,15,5.5,22.81,5.5,32.44a38,38,0,0,0,.21,4,4.63,4.63,0,0,0,1.22,2.71C10.74,43.19,17,45,24,45s13.26-1.81,17.07-5.82a4.63,4.63,0,0,0,1.22-2.71,38,38,0,0,0,.21-4C42.5,22.81,39,15,34.75,15Z"/><path class="cls-4" d="M24,30.77c1.87,0,3.38-1.63,3.38-2.68,0-.69-.65-.86-1.63-.89a1.14,1.14,0,0,1-.79-.36,3.3,3.3,0,0,0-.64-.52.61.61,0,0,0-.64,0,3.3,3.3,0,0,0-.64.52,1.14,1.14,0,0,1-.79.36c-1,0-1.63.2-1.63.89C20.62,29.14,22.13,30.77,24,30.77Z"/><path class="cls-5" d="M20.81,28.68C20,20.86,17,15,13.25,15,9,15,5.5,22.81,5.5,32.44c0,.33,0,.65,0,1,.36-8.88,3.68-15.83,7.71-15.83,3.31,0,6.12,4.67,7.24,11.23Z"/><path class="cls-6" d="M34.75,15C31,15,28,20.86,27.19,28.68l.33.14c1.11-6.56,3.93-11.23,7.24-11.23,4,0,7.35,7,7.71,15.83,0-.33,0-.64,0-1C42.5,22.81,39,15,34.75,15Z"/><circle class="cls-7" cx="14.81" cy="22.5" r="1.5"/><path class="cls-8" d="M14.81,21a1.5,1.5,0,0,0-1.5,1.5h1.5Z"/><circle class="cls-9" cx="32.81" cy="22.5" r="1.5"/><path class="cls-10" d="M32.81,21a1.5,1.5,0,0,0-1.5,1.5h1.5Z"/><ellipse class="cls-11" cx="13.69" cy="24.79" rx="1.79" ry="0.92"/><ellipse class="cls-12" cx="34.31" cy="24.79" rx="1.79" ry="0.92"/><path class="cls-13" d="M24,23.61c-2.87,0-5.19,2.29-5.19,3.77,0,1,1,1.21,2.5,1.25a1.83,1.83,0,0,1,1.21.51,5,5,0,0,0,1,.74,1,1,0,0,0,1,0,5,5,0,0,0,1-.74,1.83,1.83,0,0,1,1.21-.51c1.5,0,2.5-.28,2.5-1.25C29.19,25.9,26.87,23.61,24,23.61Z"/><path class="cls-14" d="M24,24.56a5.64,5.64,0,0,1,5.06,3.12,1,1,0,0,0,.13-.5c0-1.48-2.33-3.77-5.19-3.77s-5.19,2.29-5.19,3.77a1,1,0,0,0,.13.5A5.64,5.64,0,0,1,24,24.56Z"/></g></svg>
