<svg xmlns="http://www.w3.org/2000/svg" xmlns:xlink="http://www.w3.org/1999/xlink" viewBox="0 0 48 48">
    <defs>
        <style>
            .cls-1 {
                fill: url(#linear-gradient);
            }

            .cls-2 {
                fill: url(#linear-gradient-2);
            }

            .cls-3 {
                fill: url(#linear-gradient-3);
            }

            .cls-4 {
                fill: url(#linear-gradient-4);
            }

            .cls-5 {
                fill: url(#linear-gradient-5);
            }

            .cls-6 {
                fill: url(#linear-gradient-6);
            }

            .cls-7 {
                fill: url(#linear-gradient-7);
            }

            .cls-8 {
                fill: url(#linear-gradient-8);
            }

            .cls-9 {
                fill: url(#linear-gradient-9);
            }

            .cls-10 {
                fill: url(#linear-gradient-10);
            }

            .cls-11 {
                fill: url(#linear-gradient-11);
            }

            .cls-12 {
                fill: url(#linear-gradient-12);
            }

            .cls-13 {
                fill: url(#linear-gradient-13);
            }

            .cls-14 {
                fill: url(#linear-gradient-14);
            }

            .cls-15 {
                fill: url(#linear-gradient-15);
            }

            .cls-16 {
                fill: url(#linear-gradient-16);
            }

            .cls-17 {
                fill: url(#linear-gradient-17);
            }

            .cls-18 {
                fill: url(#linear-gradient-18);
            }

            .cls-19 {
                fill: url(#linear-gradient-19);
            }

            .cls-20 {
                fill: url(#linear-gradient-20);
            }

            .cls-21 {
                fill: url(#linear-gradient-21);
            }

            .cls-22 {
                fill: url(#linear-gradient-22);
            }

            .cls-23 {
                fill: url(#linear-gradient-23);
            }

            .cls-24 {
                fill: url(#linear-gradient-24);
            }

            .cls-25 {
                fill: url(#linear-gradient-25);
            }

            .cls-26 {
                fill: url(#linear-gradient-26);
            }

            .cls-27 {
                fill: url(#linear-gradient-27);
            }

            .cls-28 {
                fill: url(#linear-gradient-28);
            }

            .cls-29 {
                fill: url(#linear-gradient-29);
            }

            .cls-30 {
                fill: url(#linear-gradient-30);
            }
        </style>
        <linearGradient id="linear-gradient" x1="24" y1="58" x2="24" y2="25.63" gradientUnits="userSpaceOnUse">
            <stop offset="0" stop-color="#27e9de" />
            <stop offset="0.49" stop-color="#03a4ec" />
            <stop offset="1" stop-color="#2547a8" />
        </linearGradient>
        <linearGradient id="linear-gradient-2" x1="14.3" y1="-4.71" x2="15.33" y2="24.57"
            xlink:href="#linear-gradient" />
        <linearGradient id="linear-gradient-3" x1="2.13" y1="-16.29" x2="13.8" y2="19.51"
            xlink:href="#linear-gradient" />
        <linearGradient id="linear-gradient-4" x1="-2.96" y1="18.39" x2="18.08" y2="12.18"
            xlink:href="#linear-gradient" />
        <linearGradient id="linear-gradient-5" x1="-9.01" y1="6.04" x2="21.16" y2="18.79"
            xlink:href="#linear-gradient" />
        <linearGradient id="linear-gradient-6" x1="4.32" y1="19.26" x2="17.32" y2="15.94"
            xlink:href="#linear-gradient" />
        <linearGradient id="linear-gradient-7" x1="324.34" y1="-4.71" x2="325.37" y2="24.57"
            gradientTransform="matrix(-1, 0, 0, 1, 358.04, 0)" xlink:href="#linear-gradient" />
        <linearGradient id="linear-gradient-8" x1="312.17" y1="-16.29" x2="323.84" y2="19.51"
            gradientTransform="matrix(-1, 0, 0, 1, 358.04, 0)" xlink:href="#linear-gradient" />
        <linearGradient id="linear-gradient-9" x1="307.08" y1="18.39" x2="328.12" y2="12.18"
            gradientTransform="matrix(-1, 0, 0, 1, 358.04, 0)" xlink:href="#linear-gradient" />
        <linearGradient id="linear-gradient-10" x1="301.03" y1="6.04" x2="331.2" y2="18.79"
            gradientTransform="matrix(-1, 0, 0, 1, 358.04, 0)" xlink:href="#linear-gradient" />
        <linearGradient id="linear-gradient-11" x1="314.35" y1="19.26" x2="327.35" y2="15.94"
            gradientTransform="matrix(-1, 0, 0, 1, 358.04, 0)" xlink:href="#linear-gradient" />
        <linearGradient id="linear-gradient-12" x1="24" y1="55.13" x2="24" y2="-5.3" xlink:href="#linear-gradient" />
        <linearGradient id="linear-gradient-13" x1="16.5" y1="34.56" x2="16.5" y2="17.79"
            xlink:href="#linear-gradient" />
        <linearGradient id="linear-gradient-14" x1="31.5" y1="34.56" x2="31.5" y2="17.79"
            xlink:href="#linear-gradient" />
        <linearGradient id="linear-gradient-15" x1="24" y1="50.67" x2="24" y2="16.09" xlink:href="#linear-gradient" />
        <linearGradient id="linear-gradient-16" x1="24" y1="39.46" x2="24" y2="27.26" xlink:href="#linear-gradient" />
        <linearGradient id="linear-gradient-17" x1="24" y1="41" x2="24" y2="-35.69" xlink:href="#linear-gradient" />
        <linearGradient id="linear-gradient-18" x1="24" y1="50.08" x2="24" y2="-18.93" xlink:href="#linear-gradient" />
        <linearGradient id="linear-gradient-19" x1="16.5" y1="40.75" x2="16.5" y2="32.06"
            gradientUnits="userSpaceOnUse">
            <stop offset="0" stop-color="#273a9b" />
            <stop offset="0.56" stop-color="#202f65" />
            <stop offset="1" stop-color="#021e2f" />
        </linearGradient>
        <linearGradient id="linear-gradient-20" x1="15.75" y1="28.21" x2="15.75" y2="25.46"
            xlink:href="#linear-gradient-19" />
        <linearGradient id="linear-gradient-21" x1="31.5" y1="40.75" x2="31.5" y2="32.06"
            xlink:href="#linear-gradient-19" />
        <linearGradient id="linear-gradient-22" x1="30.75" y1="28.21" x2="30.75" y2="25.46"
            xlink:href="#linear-gradient-19" />
        <linearGradient id="linear-gradient-23" x1="17.09" y1="26.74" x2="17.09" y2="23.73"
            xlink:href="#linear-gradient" />
        <linearGradient id="linear-gradient-24" x1="30.9" y1="26.63" x2="30.9" y2="23.59"
            xlink:href="#linear-gradient" />
        <linearGradient id="linear-gradient-25" x1="24" y1="44.77" x2="24" y2="22.65" xlink:href="#linear-gradient" />
        <linearGradient id="linear-gradient-26" x1="24" y1="11.65" x2="24" y2="64.26" xlink:href="#linear-gradient" />
        <linearGradient id="linear-gradient-27" x1="24" y1="42.01" x2="24" y2="23.59"
            xlink:href="#linear-gradient-19" />
        <linearGradient id="linear-gradient-28" x1="23.98" y1="45.13" x2="23.98" y2="26.97"
            xlink:href="#linear-gradient-19" />
        <linearGradient id="linear-gradient-29" x1="15.02" y1="35.38" x2="15.6" y2="12.04"
            xlink:href="#linear-gradient" />
        <linearGradient id="linear-gradient-30" x1="329.42" y1="35.38" x2="330" y2="12.04"
            gradientTransform="matrix(-1, 0, 0, 1, 362.4, 0)" xlink:href="#linear-gradient" />
    </defs>
    <title>dog, animal, pet, canine</title>
    <g id="ART">
        <path class="cls-1"
            d="M34.52,45h-21A6.17,6.17,0,0,1,7.6,40.7l-.07-.2H40.47l-.09.28A6.17,6.17,0,0,1,34.52,45Z" />
        <path class="cls-2" d="M8.38,3s8.33-1,12,9.19-6.31,5.94-6.31,5.94" />
        <path class="cls-3"
            d="M8.38,3C5.93,5.94,5.17,10.83,6.77,15.69s5.12,8.34,8.84,9.25c2.45-2.94,3.21-7.83,1.61-12.69S12.1,3.91,8.38,3Z" />
        <path class="cls-4"
            d="M17.22,12.25C15.62,7.39,12.1,3.91,8.38,3a9.28,9.28,0,0,0-.91,1.33c3.35,1.23,6.41,4.51,7.87,9a14.25,14.25,0,0,1-.7,11.36,9.06,9.06,0,0,0,1,.3C18.06,22,18.82,17.12,17.22,12.25Z" />
        <path class="cls-5"
            d="M10.61,16.5a5.29,5.29,0,0,0,5.29,5.29,5.23,5.23,0,0,0,1.5-.24,15.11,15.11,0,0,0-.19-9.3c-.11-.32-.22-.64-.34-.95a5.25,5.25,0,0,0-6.27,5.19Z" />
        <path class="cls-6"
            d="M17.22,12.25c-.11-.32-.22-.64-.34-.95a5.3,5.3,0,0,0-1-.1h0a3.28,3.28,0,0,0-2.46,1.18,5.29,5.29,0,0,0,4.1,8.7h0A15.23,15.23,0,0,0,17.22,12.25Z" />
        <path class="cls-7" d="M39.62,3s-8.33-1-12,9.19,6.31,5.94,6.31,5.94" />
        <path class="cls-8"
            d="M39.62,3c2.45,2.94,3.21,7.83,1.61,12.69S36.11,24,32.39,24.95c-2.45-2.94-3.21-7.83-1.61-12.69S35.9,3.91,39.62,3Z" />
        <path class="cls-9"
            d="M30.78,12.25C32.38,7.39,35.9,3.91,39.62,3a9.28,9.28,0,0,1,.91,1.33c-3.35,1.23-6.41,4.51-7.87,9a14.25,14.25,0,0,0,.7,11.36,9.06,9.06,0,0,1-1,.3C29.94,22,29.18,17.12,30.78,12.25Z" />
        <path class="cls-10"
            d="M37.39,16.5a5.29,5.29,0,0,1-5.29,5.29,5.23,5.23,0,0,1-1.5-.24,15.11,15.11,0,0,1,.19-9.3c.11-.32.22-.64.34-.95a5.25,5.25,0,0,1,6.27,5.19Z" />
        <path class="cls-11"
            d="M30.78,12.25c.11-.32.22-.64.34-.95a5.3,5.3,0,0,1,1-.1h0a3.28,3.28,0,0,1,2.46,1.18,5.29,5.29,0,0,1-4.1,8.7h0A15.23,15.23,0,0,1,30.78,12.25Z" />
        <path class="cls-12"
            d="M43.1,34.94l-1-10.42a10.55,10.55,0,0,0-5.22-8.1l-4.7-2.71a16.29,16.29,0,0,0-16.29,0l-4.7,2.71a10.55,10.55,0,0,0-5.22,8.1l-1,10.42a6.94,6.94,0,0,0,3,6.39h0A20.67,20.67,0,0,0,19.62,45h8.75a20.67,20.67,0,0,0,11.77-3.68h0A6.94,6.94,0,0,0,43.1,34.94Z" />
        <path class="cls-13" d="M18,27a1.5,1.5,0,0,1-3,0c0-.83.67-3.5,1.5-3.5S18,26.17,18,27Z" />
        <path class="cls-14" d="M33,27a1.5,1.5,0,0,1-3,0c0-.83.67-3.5,1.5-3.5S33,26.17,33,27Z" />
        <path class="cls-15"
            d="M29.31,32.73h0a2,2,0,0,1-2-1.8L25.74,13.81a16.3,16.3,0,0,0-3.48,0L20.68,31a1.9,1.9,0,0,1-1.9,1.73h-.09c-2.87,0-5.19,1.7-5.19,3.79s2.32,3.79,5.19,3.79l.57,0a4.83,4.83,0,0,1,2.21.44,7.2,7.2,0,0,0,5,0,4.83,4.83,0,0,1,2.21-.44l.57,0c2.87,0,5.19-1.7,5.19-3.79S32.18,32.73,29.31,32.73Z" />
        <ellipse class="cls-16" cx="24" cy="36.89" rx="4.1" ry="2.11" />
        <path class="cls-17"
            d="M34.5,34.33c0-2.09-2.32-3.79-5.19-3.79h0a2,2,0,0,1-2-1.8L25.74,11.62a16.3,16.3,0,0,0-3.48,0L20.68,28.81a1.9,1.9,0,0,1-1.9,1.73h-.09c-2.87,0-5.19,1.7-5.19,3.79s2.32,3.79,5.19,3.79a10.42,10.42,0,0,0,4.12-.94,2.86,2.86,0,0,1,2.38,0,10.42,10.42,0,0,0,4.12.94C32.18,38.13,34.5,36.43,34.5,34.33Z" />
        <path class="cls-18"
            d="M5.93,28a10.55,10.55,0,0,1,5.22-8.1l4.7-2.71a16.29,16.29,0,0,1,16.29,0l4.7,2.71A10.55,10.55,0,0,1,42.07,28l.9,9.07a6.91,6.91,0,0,0,.13-2.13l-1-10.42a10.55,10.55,0,0,0-5.22-8.1l-4.7-2.71a16.29,16.29,0,0,0-16.29,0l-4.7,2.71a10.55,10.55,0,0,0-5.22,8.1l-1,10.42A6.91,6.91,0,0,0,5,37.07Z" />
        <circle class="cls-19" cx="16.5" cy="27" r="1.5" />
        <path class="cls-20" d="M16.5,25.5A1.5,1.5,0,0,0,15,27h1.5Z" />
        <circle class="cls-21" cx="31.5" cy="27" r="1.5" />
        <path class="cls-22" d="M31.5,25.5A1.5,1.5,0,0,0,30,27h1.5Z" />
        <path class="cls-23"
            d="M20.68,28.81a1.9,1.9,0,0,1-1.9,1.73h-.09c-2.87,0-5.19,1.7-5.19,3.79a2.77,2.77,0,0,0,.06.44c.3-1.89,2.47-3.35,5.13-3.35h.09a1.9,1.9,0,0,0,1.9-1.73" />
        <path class="cls-24"
            d="M27.31,29.61a2,2,0,0,0,2,1.8h0c2.66,0,4.83,1.47,5.13,3.35a2.77,2.77,0,0,0,.06-.44c0-2.09-2.32-3.79-5.19-3.79h0a2,2,0,0,1-2-1.8" />
        <path class="cls-25"
            d="M28.1,30.68C28.1,32,26.26,36,24,36s-4.1-4-4.1-5.32,1.83-2.42,4.1-2.42S28.1,29.34,28.1,30.68Z" />
        <path class="cls-26"
            d="M26.06,15.13l-.32-3.51a16.3,16.3,0,0,0-3.48,0l-.32,3.51A16.31,16.31,0,0,1,26.06,15.13Z" />
        <path class="cls-27"
            d="M28.1,30.68c0,1.34-1.83,4-4.1,4s-4.1-2.69-4.1-4,1.83-2.42,4.1-2.42S28.1,29.34,28.1,30.68Z" />
        <path class="cls-28"
            d="M21.87,30.75a1.72,1.72,0,0,0-.48,2.75,3.39,3.39,0,0,0,5.11.1A1.75,1.75,0,0,0,26,30.7a6.41,6.41,0,0,0-2-.3A6.34,6.34,0,0,0,21.87,30.75Z" />
        <path class="cls-29"
            d="M16.94,30.2c-.22.61-.9,0-1.89-.36s-1.9-.33-1.67-.95,1.2-.81,2.18-.45S17.16,29.59,16.94,30.2Z" />
        <path class="cls-30"
            d="M31.06,30.2c.22.61.9,0,1.89-.36s1.9-.33,1.67-.95-1.2-.81-2.18-.45S30.84,29.59,31.06,30.2Z" />
    </g>
</svg>