<svg xmlns="http://www.w3.org/2000/svg" xmlns:xlink="http://www.w3.org/1999/xlink" viewBox="0 0 48 48">
    <defs>
        <style>
            .cls-1 {
                fill: url(#linear-gradient);
            }

            .cls-2 {
                fill: url(#linear-gradient-2);
            }

            .cls-3 {
                fill: url(#linear-gradient-3);
            }

            .cls-4 {
                fill: url(#linear-gradient-4);
            }

            .cls-5 {
                fill: url(#linear-gradient-5);
            }

            .cls-6 {
                fill: url(#linear-gradient-6);
            }

            .cls-7 {
                fill: url(#linear-gradient-7);
            }

            .cls-8 {
                fill: url(#linear-gradient-8);
            }

            .cls-9 {
                fill: url(#linear-gradient-9);
            }

            .cls-10 {
                fill: url(#linear-gradient-10);
            }

            .cls-11 {
                fill: url(#linear-gradient-11);
            }

            .cls-12 {
                fill: url(#linear-gradient-12);
            }

            .cls-13 {
                fill: url(#linear-gradient-13);
            }

            .cls-14 {
                fill: url(#linear-gradient-14);
            }

            .cls-15 {
                fill: url(#linear-gradient-15);
            }

            .cls-16 {
                fill: url(#linear-gradient-16);
            }
        </style>
        <linearGradient id="linear-gradient" x1="24.28" y1="39.62" x2="24.28" y2="-1.5" gradientUnits="userSpaceOnUse">
            <stop offset="0" stop-color="#f3c57a" />
            <stop offset="0.49" stop-color="#6458ED" />
            <stop offset="1" stop-color="#533EDD" />
        </linearGradient>
        <linearGradient id="linear-gradient-2" x1="24.28" y1="60.4" x2="24.28" y2="0.73"
            xlink:href="#linear-gradient" />
        <linearGradient id="linear-gradient-3" x1="24.05" y1="52.08" x2="24.05" y2="26.83"
            xlink:href="#linear-gradient" />
        <linearGradient id="linear-gradient-4" x1="2.55" y1="56.2" x2="20.43" y2="9.45" xlink:href="#linear-gradient" />
        <linearGradient id="linear-gradient-5" x1="322.55" y1="56.2" x2="340.43" y2="9.45"
            gradientTransform="matrix(-1, 0, 0, 1, 368, 0)" xlink:href="#linear-gradient" />
        <linearGradient id="linear-gradient-6" x1="24" y1="41.04" x2="24" y2="27.33" xlink:href="#linear-gradient" />
        <linearGradient id="linear-gradient-7" x1="15" y1="42.25" x2="15" y2="33.56" gradientUnits="userSpaceOnUse">
            <stop offset="0" stop-color="#273a9b" />
            <stop offset="0.56" stop-color="#202f65" />
            <stop offset="1" stop-color="#021e2f" />
        </linearGradient>
        <linearGradient id="linear-gradient-8" x1="14.25" y1="29.71" x2="14.25" y2="26.96"
            xlink:href="#linear-gradient-7" />
        <linearGradient id="linear-gradient-9" x1="33" y1="42.25" x2="33" y2="33.56" xlink:href="#linear-gradient-7" />
        <linearGradient id="linear-gradient-10" x1="32.25" y1="29.71" x2="32.25" y2="26.96"
            xlink:href="#linear-gradient-7" />
        <linearGradient id="linear-gradient-11" x1="24" y1="32.43" x2="24" y2="0.08" xlink:href="#linear-gradient" />
        <linearGradient id="linear-gradient-12" x1="24" y1="32.36" x2="24" y2="0.61" gradientUnits="userSpaceOnUse">
            <stop offset="0" stop-color="#efda80" />
            <stop offset="0.55" stop-color="#f3c57a" />
            <stop offset="1" stop-color="#f39369" />
        </linearGradient>
        <linearGradient id="linear-gradient-13" x1="13.87" y1="24.54" x2="13.87" y2="41.69"
            xlink:href="#linear-gradient" />
        <linearGradient id="linear-gradient-14" x1="34.5" y1="24.54" x2="34.5" y2="41.69"
            xlink:href="#linear-gradient" />
        <linearGradient id="linear-gradient-15" x1="25.2" y1="39.63" x2="25.2" y2="-1.5"
            xlink:href="#linear-gradient" />
        <linearGradient id="linear-gradient-16" x1="22.27" y1="40.25" x2="22.27" y2="-0.87"
            xlink:href="#linear-gradient" />
    </defs>
    <title>duck, animal, wildlife, pet, bird</title>
    <g id="ART">
        <path class="cls-1"
            d="M45.28,30.47a10.51,10.51,0,0,0-2-6,25.57,25.57,0,0,1-2.89-5.11c-2.94-7.43-9-13.6-16.09-13.6s-12.93,6-15.93,13.21A22.42,22.42,0,0,1,5.6,24a10.66,10.66,0,0,0-2.32,6.49c0,7.44,8.41,13.54,19.13,14.18.62,0,1.26.07,1.9.07s1.3,0,1.93-.07C36.92,44,45.28,37.89,45.28,30.47Z" />
        <path class="cls-2"
            d="M45.28,30.47a10.51,10.51,0,0,0-2-6,25.57,25.57,0,0,1-2.89-5.11c-2.94-7.43-9-8.82-16.09-8.82S11.38,11.67,8.38,18.93A22.42,22.42,0,0,1,5.6,24a10.66,10.66,0,0,0-2.32,6.49c0,7.44,8.41,13.54,19.13,14.18.62,0,1.26.07,1.9.07s1.3,0,1.93-.07C36.92,44,45.28,37.89,45.28,30.47Z" />
        <ellipse class="cls-3" cx="24.05" cy="37.5" rx="8.95" ry="6" />
        <ellipse class="cls-4" cx="12.97" cy="28.95" rx="3.53" ry="5.14" />
        <ellipse class="cls-5" cx="35.03" cy="28.95" rx="3.53" ry="5.14" />
        <ellipse class="cls-6" cx="24" cy="35.72" rx="6.16" ry="4.78" />
        <circle class="cls-7" cx="15" cy="28.5" r="1.5" />
        <path class="cls-8" d="M15,27a1.5,1.5,0,0,0-1.5,1.5H15Z" />
        <circle class="cls-9" cx="33" cy="28.5" r="1.5" />
        <path class="cls-10" d="M33,27a1.5,1.5,0,0,0-1.5,1.5H33Z" />
        <path class="cls-11"
            d="M29.22,32.15a6.13,6.13,0,0,1-1.57-1.58A4.58,4.58,0,0,0,24,28.5a4.58,4.58,0,0,0-3.65,2.07,6.13,6.13,0,0,1-1.57,1.58C16.49,33.62,15,35.75,15,37c0,2.12,4,.35,9,.35s9,1.78,9-.35C33,35.75,31.51,33.62,29.22,32.15Z" />
        <path class="cls-12"
            d="M15.51,37.9a10,10,0,0,1,3.28-3.32A6.13,6.13,0,0,0,20.35,33,4.58,4.58,0,0,1,24,30.93,4.58,4.58,0,0,1,27.65,33a6.13,6.13,0,0,0,1.57,1.58,10,10,0,0,1,3.28,3.32A.87.87,0,0,0,33,37c0-1.29-1.49-3.42-3.78-4.89a6.13,6.13,0,0,1-1.57-1.58A4.58,4.58,0,0,0,24,28.5a4.58,4.58,0,0,0-3.65,2.07,6.13,6.13,0,0,1-1.57,1.58C16.49,33.62,15,35.75,15,37A.87.87,0,0,0,15.51,37.9Z" />
        <ellipse class="cls-13" cx="13.88" cy="30.79" rx="1.79" ry="0.92" />
        <ellipse class="cls-14" cx="34.5" cy="30.79" rx="1.79" ry="0.92" />
        <path class="cls-15"
            d="M26.78,6.39A2.11,2.11,0,0,1,26.84,6a3.59,3.59,0,0,1-1.08-.54,3.64,3.64,0,0,1-1.3-1.79A.84.84,0,0,0,23,3.39h0a3.68,3.68,0,0,0,5.12,5.18A2.78,2.78,0,0,1,26.78,6.39Z" />
        <path class="cls-16"
            d="M23.85,7a2.11,2.11,0,0,1,.07-.41,3.59,3.59,0,0,1-1.08-.54,3.64,3.64,0,0,1-1.3-1.79A.84.84,0,0,0,20.09,4h0A3.68,3.68,0,0,0,25.2,9.21,2.78,2.78,0,0,1,23.85,7Z" />
    </g>
</svg>
